<svg width="25" height="25" viewBox="0 0 25 25" fill="none" xmlns="http://www.w3.org/2000/svg">
<path d="M12.4889 0C10.0621 0.00461097 7.68892 0.714865 5.65854 2.04425C3.62816 3.37363 2.02819 5.26477 1.0535 7.48732C0.0788206 9.70986 -0.228505 12.1679 0.168962 14.562C0.566428 16.9561 1.65153 19.1829 3.2921 20.9713C4.46382 22.2414 5.88591 23.255 7.46877 23.9483C9.05162 24.6416 10.7609 24.9996 12.4889 24.9995C14.217 24.9996 15.9263 24.6416 17.5091 23.9483C19.092 23.255 20.5141 22.2414 21.6858 20.9713C23.3264 19.1829 24.4115 16.9561 24.8089 14.562C25.2064 12.1679 24.8991 9.70986 23.9244 7.48732C22.9497 5.26477 21.3497 3.37363 19.3193 2.04425C17.289 0.714865 14.9158 0.00461097 12.4889 0ZM12.4889 22.5229C9.89689 22.5189 7.40742 21.5097 5.54439 19.7075C6.11002 18.3305 7.07223 17.1528 8.30876 16.3239C9.54529 15.4951 11.0003 15.0525 12.4889 15.0525C13.9776 15.0525 15.4326 15.4951 16.6691 16.3239C17.9057 17.1528 18.8679 18.3305 19.4335 19.7075C17.5705 21.5097 15.081 22.5189 12.4889 22.5229ZM9.9864 10.0102C9.9864 9.51521 10.1332 9.03137 10.4082 8.61983C10.6831 8.20829 11.074 7.88753 11.5313 7.69812C11.9885 7.50871 12.4917 7.45915 12.9772 7.55571C13.4626 7.65227 13.9085 7.89062 14.2585 8.2406C14.6085 8.59059 14.8468 9.0365 14.9434 9.52194C15.04 10.0074 14.9904 10.5106 14.801 10.9678C14.6116 11.4251 14.2908 11.816 13.8793 12.091C13.4677 12.3659 12.9839 12.5127 12.4889 12.5127C11.8252 12.5127 11.1887 12.249 10.7194 11.7797C10.2501 11.3104 9.9864 10.6739 9.9864 10.0102ZM21.1352 17.5178C20.0173 15.6055 18.2966 14.1181 16.2428 13.2885C16.8799 12.5661 17.295 11.6752 17.4383 10.7227C17.5816 9.77019 17.4471 8.79657 17.0508 7.91866C16.6545 7.04075 16.0133 6.29584 15.2041 5.77332C14.3949 5.2508 13.4522 4.97286 12.4889 4.97286C11.5257 4.97286 10.583 5.2508 9.7738 5.77332C8.96463 6.29584 8.32342 7.04075 7.92712 7.91866C7.53082 8.79657 7.39625 9.77019 7.53958 10.7227C7.6829 11.6752 8.09802 12.5661 8.73513 13.2885C6.68129 14.1181 4.96063 15.6055 3.84266 17.5178C2.95169 16.0001 2.48093 14.2726 2.47877 12.5127C2.47877 9.85785 3.53341 7.31172 5.41069 5.43445C7.28796 3.55718 9.83408 2.50254 12.4889 2.50254C15.1438 2.50254 17.6899 3.55718 19.5672 5.43445C21.4445 7.31172 22.4991 9.85785 22.4991 12.5127C22.497 14.2726 22.0262 16.0001 21.1352 17.5178Z" fill="#D97356"/>
</svg>
