<svg width="1030" height="66" viewBox="0 0 1030 66" fill="none" xmlns="http://www.w3.org/2000/svg">
<g filter="url(#filter0_b_36_256)">
<path d="M0 6H1030V34C1030 45.201 1030 50.8016 1027.82 55.0798C1025.9 58.8431 1022.84 61.9027 1019.08 63.8201C1014.8 66 1009.2 66 998 66H32C20.799 66 15.1984 66 10.9202 63.8201C7.15695 61.9027 4.09734 58.8431 2.17987 55.0798C0 50.8016 0 45.201 0 34V6Z" fill="black" fill-opacity="0.2"/>
</g>
<g clip-path="url(#clip0_36_256)">
<path d="M578.537 35.3847L566.229 26.154C565.998 25.9786 565.684 25.9509 565.424 26.0817C565.163 26.2125 564.998 26.4786 564.998 26.7694V45.2308C564.998 45.5215 565.163 45.7877 565.423 45.9184C565.532 45.9723 565.651 46 565.768 46C565.931 46 566.094 45.9477 566.229 45.8461L578.537 36.6155C578.73 36.4708 578.844 36.2416 578.844 36.0001C578.844 35.7585 578.73 35.5293 578.537 35.3847Z" fill="white"/>
<path d="M584.229 26H582.69C582.266 26 581.921 26.3446 581.921 26.7692V45.2306C581.921 45.6552 582.266 45.9998 582.69 45.9998H584.229C584.653 45.9998 584.998 45.6552 584.998 45.2306V26.7692C584.998 26.3446 584.653 26 584.229 26Z" fill="white"/>
</g>
<path d="M517.416 26H521.758C522.029 26 522.248 26.2191 522.248 26.4893V45.5107C522.248 45.7809 522.029 46 521.758 46H517.416C517.146 46 516.927 45.7809 516.927 45.5107V26.4893C516.927 26.2191 517.146 26 517.416 26Z" fill="white"/>
<path d="M508.241 26H512.584C512.854 26 513.073 26.2191 513.073 26.4893V45.5107C513.073 45.7809 512.854 46 512.584 46H508.241C507.971 46 507.752 45.7809 507.752 45.5107V26.4893C507.752 26.2191 507.971 26 508.241 26Z" fill="white"/>
<g clip-path="url(#clip1_36_256)">
<path d="M451.463 35.3847L463.771 26.154C464.002 25.9786 464.316 25.9509 464.576 26.0817C464.837 26.2125 465.002 26.4786 465.002 26.7694V45.2308C465.002 45.5215 464.837 45.7877 464.577 45.9184C464.468 45.9723 464.349 46 464.232 46C464.069 46 463.906 45.9477 463.771 45.8461L451.463 36.6155C451.27 36.4708 451.156 36.2416 451.156 36.0001C451.156 35.7585 451.27 35.5293 451.463 35.3847Z" fill="white"/>
<path d="M445.771 26H447.31C447.734 26 448.079 26.3446 448.079 26.7692V45.2306C448.079 45.6552 447.734 45.9998 447.31 45.9998H445.771C445.347 45.9998 445.002 45.6552 445.002 45.2306V26.7692C445.002 26.3446 445.347 26 445.771 26Z" fill="white"/>
</g>
<rect y="4" width="347" height="2" fill="#D97356"/>
<circle cx="347" cy="5" r="4" fill="white" stroke="#D97356" stroke-width="2"/>
<defs>
<filter id="filter0_b_36_256" x="-10" y="-4" width="1050" height="80" filterUnits="userSpaceOnUse" color-interpolation-filters="sRGB">
<feFlood flood-opacity="0" result="BackgroundImageFix"/>
<feGaussianBlur in="BackgroundImage" stdDeviation="5"/>
<feComposite in2="SourceAlpha" operator="in" result="effect1_backgroundBlur_36_256"/>
<feBlend mode="normal" in="SourceGraphic" in2="effect1_backgroundBlur_36_256" result="shape"/>
</filter>
<clipPath id="clip0_36_256">
<rect width="20" height="20" fill="white" transform="translate(565 26)"/>
</clipPath>
<clipPath id="clip1_36_256">
<rect width="20" height="20" fill="white" transform="matrix(-1 0 0 1 465 26)"/>
</clipPath>
</defs>
</svg>
