<svg width="15" height="16" viewBox="0 0 15 16" fill="none" xmlns="http://www.w3.org/2000/svg">
<path d="M10.2851 8.07632C11.024 7.49496 11.5634 6.69773 11.8281 5.79557C12.0928 4.8934 12.0698 3.93114 11.7622 3.04268C11.4546 2.15421 10.8777 1.38372 10.1118 0.838385C9.34588 0.293052 8.42905 0 7.48883 0C6.54862 0 5.63179 0.293052 4.86589 0.838385C4.09999 1.38372 3.5231 2.15421 3.21549 3.04268C2.90788 3.93114 2.88484 4.8934 3.14958 5.79557C3.41431 6.69773 3.95366 7.49496 4.69259 8.07632C3.42642 8.58359 2.32165 9.42496 1.49605 10.5107C0.670443 11.5965 0.154958 12.8859 0.00454623 14.2416C-0.00634134 14.3406 0.00237295 14.4408 0.0301914 14.5364C0.0580098 14.632 0.104387 14.7212 0.166677 14.7989C0.292476 14.9558 0.475449 15.0562 0.675344 15.0782C0.875238 15.1002 1.07568 15.0419 1.23258 14.9161C1.38947 14.7903 1.48997 14.6073 1.51196 14.4074C1.67746 12.9341 2.37999 11.5734 3.48532 10.5852C4.59065 9.59712 6.0213 9.05088 7.50391 9.05088C8.98652 9.05088 10.4172 9.59712 11.5225 10.5852C12.6278 11.5734 13.3304 12.9341 13.4959 14.4074C13.5164 14.5926 13.6047 14.7637 13.7439 14.8876C13.8831 15.0114 14.0632 15.0794 14.2496 15.0782H14.3325C14.53 15.0555 14.7106 14.9556 14.8349 14.8003C14.9591 14.645 15.0169 14.4469 14.9957 14.2492C14.8446 12.8896 14.3263 11.5969 13.4965 10.5094C12.6667 9.422 11.5565 8.58091 10.2851 8.07632ZM7.48883 7.54119C6.89256 7.54119 6.30968 7.36437 5.81389 7.0331C5.31811 6.70183 4.93169 6.23098 4.7035 5.68009C4.47532 5.12921 4.41562 4.52303 4.53194 3.93821C4.64827 3.35339 4.93541 2.8162 5.35704 2.39457C5.77867 1.97294 6.31586 1.68581 6.90067 1.56948C7.48549 1.45315 8.09167 1.51286 8.64256 1.74104C9.19344 1.96923 9.66429 2.35564 9.99556 2.85143C10.3268 3.34721 10.5037 3.9301 10.5037 4.52637C10.5037 5.32595 10.186 6.09278 9.62063 6.65817C9.05525 7.22356 8.28841 7.54119 7.48883 7.54119Z" fill="#5D5A6F"/>
</svg>
