<svg width="25" height="10" viewBox="0 0 25 10" fill="none" xmlns="http://www.w3.org/2000/svg">
<path d="M20.6798 9.03271C19.7969 8.1498 18.7991 7.43916 17.7439 6.90079C17.5768 6.81828 17.4363 6.69034 17.3385 6.53164C17.2408 6.37294 17.1897 6.18991 17.1912 6.00352L17.4783 3.46245C14.4779 2.40007 10.7452 2.32829 7.62987 3.41938L7.83804 6.0107C7.83086 6.4055 7.60834 6.74287 7.27814 6.91515C6.21577 7.44633 5.22518 8.16415 4.34227 9.04707C3.95465 9.43469 3.30861 9.43469 2.92099 9.04707L0.437338 6.56342C0.0497167 6.1758 -0.244589 5.53694 0.293775 4.99858C6.9623 -1.66995 18.0526 -1.66277 24.7139 4.99858C25.2236 5.50823 24.9724 6.16144 24.5776 6.55624L22.1011 9.03271C21.7135 9.42033 21.0674 9.42033 20.6798 9.03271Z" fill="white"/>
</svg>
