<svg width="30" height="24" viewBox="0 0 30 24" fill="none" xmlns="http://www.w3.org/2000/svg">
<path d="M15.009 21.2675C15.009 21.796 14.7037 22.2762 14.2258 22.5003C14.041 22.5876 13.8431 22.6299 13.6464 22.6299C13.3349 22.6299 13.0263 22.5228 12.777 22.3161L5.32911 16.1445H1.36235C0.610073 16.1451 0 15.5347 0 14.7825V9.35467C0 8.60207 0.610073 7.992 1.36235 7.992H5.32943L12.7774 1.82033C13.1843 1.48304 13.7486 1.41114 14.2261 1.63685C14.7037 1.86095 15.0094 2.3414 15.0094 2.86958L15.009 21.2675ZM20.2446 19.1387C20.2114 19.141 20.1795 19.1423 20.1466 19.1423C19.7868 19.1423 19.4398 19.0001 19.1835 18.7434L19.0013 18.5606C18.5234 18.0837 18.4673 17.3282 18.8697 16.7858C19.8899 15.4103 20.4284 13.7796 20.4284 12.069C20.4284 10.2291 19.8171 8.5034 18.6601 7.07818C18.2197 6.53646 18.2603 5.74969 18.7539 5.25634L18.9358 5.07416C19.208 4.80201 19.5726 4.65368 19.9673 4.67722C20.3517 4.69657 20.7106 4.87746 20.9543 5.17541C22.5592 7.13912 23.4069 9.52331 23.4069 12.0694C23.4069 14.4407 22.6572 16.6978 21.2384 18.5957C21.0014 18.9121 20.639 19.1107 20.2446 19.1387ZM25.8772 23.3489C25.6308 23.6401 25.2745 23.8149 24.8931 23.831C24.8743 23.8317 24.8553 23.8323 24.836 23.8323C24.4752 23.8323 24.1289 23.6898 23.8725 23.4334L23.6935 23.2545C23.1934 22.7547 23.1596 21.9553 23.6142 21.4143C25.8114 18.8011 27.0219 15.4825 27.0219 12.069C27.0219 8.51856 25.7259 5.1006 23.3737 2.44491C22.8968 1.90577 22.921 1.08966 23.4285 0.580188L23.6071 0.401228C23.8722 0.134886 24.2166 -0.0118284 24.6116 0.000747061C24.9866 0.0113879 25.3413 0.177127 25.5905 0.457657C28.4339 3.65893 30 7.78305 30 12.069C30.0006 16.1928 28.5364 20.1989 25.8772 23.3489Z" fill="#FF6652"/>
</svg>
