<svg width="147" height="36" viewBox="0 0 147 36" fill="none" xmlns="http://www.w3.org/2000/svg">
<path d="M16.499 7.00458L13.6462 7C10.441 7 8.36976 9.12507 8.36976 12.4142V14.9105H5.50132C5.25345 14.9105 5.05273 15.1114 5.05273 15.3593V18.9761C5.05273 19.224 5.25368 19.4247 5.50132 19.4247H8.36976V28.5512C8.36976 28.7991 8.57048 28.9998 8.81835 28.9998H12.5609C12.8087 28.9998 13.0094 28.7988 13.0094 28.5512V19.4247H16.3633C16.6112 19.4247 16.8119 19.224 16.8119 18.9761L16.8133 15.3593C16.8133 15.2403 16.7659 15.1263 16.6819 15.0421C16.5979 14.9578 16.4835 14.9105 16.3645 14.9105H13.0094V12.7943C13.0094 11.7772 13.2518 11.2609 14.5767 11.2609L16.4986 11.2602C16.7462 11.2602 16.9469 11.0593 16.9469 10.8116V7.45316C16.9469 7.20576 16.7464 7.00504 16.499 7.00458Z" fill="black"/>
<g clip-path="url(#clip0_36_1226)">
<path d="M145.92 26.3732C145.968 26.3736 146.014 26.3645 146.058 26.3463C146.101 26.3281 146.141 26.3013 146.173 26.2674C146.206 26.2336 146.231 26.1935 146.247 26.1496C146.264 26.1058 146.271 26.059 146.268 26.0124C146.268 25.7565 146.112 25.6343 145.792 25.6343H145.275V26.9738H145.47V26.3899H145.709L145.714 26.397L146.085 26.9738H146.293L145.894 26.3768L145.92 26.3732ZM145.696 26.239H145.47V25.7861H145.756C145.903 25.7861 146.072 25.81 146.072 26.0013C146.072 26.2213 145.901 26.239 145.694 26.239" fill="black"/>
<path d="M140.85 24.694H138.094V20.42C138.094 19.4008 138.076 18.0888 136.66 18.0888C135.225 18.0888 135.005 19.1993 135.005 20.3458V24.6937H132.249V15.9046H134.895V17.1058H134.932C135.197 16.6574 135.579 16.2886 136.039 16.0386C136.499 15.7886 137.019 15.6668 137.543 15.686C140.336 15.686 140.851 17.5055 140.851 19.8724L140.85 24.694ZM129.139 14.7032C128.822 14.7033 128.513 14.6105 128.25 14.4365C127.987 14.2625 127.782 14.0152 127.661 13.7258C127.54 13.4364 127.508 13.118 127.57 12.8108C127.631 12.5035 127.784 12.2213 128.007 11.9998C128.231 11.7782 128.516 11.6273 128.826 11.5662C129.136 11.505 129.458 11.5363 129.75 11.6561C130.043 11.776 130.292 11.9789 130.468 12.2393C130.644 12.4997 130.738 12.8059 130.738 13.1192C130.738 13.3272 130.697 13.5331 130.616 13.7253C130.536 13.9174 130.418 14.0921 130.27 14.2392C130.121 14.3862 129.945 14.5029 129.751 14.5826C129.557 14.6622 129.349 14.7032 129.139 14.7032ZM130.517 24.694H127.758V15.9046H130.517V24.694ZM142.224 9.00125H126.373C126.013 8.99723 125.666 9.13481 125.409 9.38376C125.151 9.6327 125.004 9.97264 125 10.3289V26.0896C125.004 26.446 125.151 26.7861 125.409 27.0353C125.666 27.2845 126.013 27.4224 126.373 27.4186H142.224C142.585 27.4231 142.933 27.2856 143.191 27.0364C143.45 26.7872 143.598 26.4467 143.603 26.0896V10.3277C143.597 9.9708 143.449 9.63047 143.191 9.38153C142.933 9.13259 142.585 8.99541 142.224 9.00012" fill="black"/>
<path d="M145.72 25.0371C145.384 25.0403 145.064 25.1749 144.828 25.4113C144.593 25.6478 144.462 25.967 144.463 26.2991C144.465 26.6311 144.599 26.949 144.837 27.1833C145.075 27.4175 145.396 27.549 145.732 27.549C146.067 27.549 146.389 27.4175 146.627 27.1833C146.864 26.949 146.999 26.6311 147 26.2991C147.002 25.967 146.871 25.6478 146.635 25.4113C146.4 25.1749 146.079 25.0403 145.744 25.0371H145.72ZM145.72 27.4052C145.5 27.4088 145.283 27.3478 145.099 27.2298C144.914 27.1118 144.768 26.9422 144.681 26.7424C144.593 26.5426 144.567 26.3215 144.607 26.1072C144.646 25.8929 144.749 25.6949 144.902 25.5384C145.054 25.3818 145.251 25.2736 145.466 25.2276C145.681 25.1816 145.905 25.1997 146.11 25.2797C146.314 25.3597 146.49 25.4979 146.615 25.677C146.741 25.8561 146.809 26.0679 146.813 26.2857C146.813 26.292 146.813 26.2979 146.813 26.3042C146.819 26.5899 146.711 26.8663 146.511 27.0727C146.311 27.2791 146.037 27.3985 145.749 27.4047H145.72" fill="black"/>
</g>
<g clip-path="url(#clip1_36_1226)">
<path d="M94.9463 26.5272C103.193 26.5272 107.703 19.8121 107.703 13.989C107.703 13.7983 107.699 13.6084 107.691 13.4194C108.566 12.7974 109.327 12.0211 109.927 11.1375C109.124 11.4885 108.259 11.7247 107.352 11.8313C108.278 11.2857 108.989 10.4227 109.324 9.3939C108.458 9.89865 107.498 10.2655 106.477 10.4636C105.659 9.60702 104.494 9.07129 103.204 9.07129C100.728 9.07129 98.7203 11.0448 98.7203 13.4774C98.7203 13.8232 98.7596 14.1595 98.8366 14.4822C95.1101 14.2979 91.8058 12.5444 89.5944 9.87802C89.2093 10.5293 88.9873 11.2857 88.9873 12.0929C88.9873 13.6217 89.7788 14.9714 90.9825 15.761C90.2469 15.7387 89.5559 15.5402 88.9519 15.2099C88.9513 15.2283 88.9513 15.2464 88.9513 15.2661C88.9513 17.4003 90.4968 19.1821 92.5483 19.5859C92.1716 19.6868 91.7752 19.741 91.3661 19.741C91.0776 19.741 90.7965 19.7131 90.5234 19.6615C91.0942 21.4124 92.7494 22.6866 94.7118 22.7222C93.1772 23.9043 91.2441 24.6084 89.1431 24.6084C88.7816 24.6084 88.4246 24.5882 88.0736 24.5474C90.0579 25.7975 92.4141 26.5269 94.9466 26.5269" fill="black"/>
</g>
<circle cx="55" cy="18" r="18" fill="#FF6652"/>
<path d="M55.0003 11.4546C53.2227 11.4546 52.9996 11.4624 52.3014 11.4941C51.6046 11.526 51.129 11.6364 50.7129 11.7982C50.2824 11.9654 49.9172 12.189 49.5534 12.553C49.1893 12.9168 48.9657 13.282 48.798 13.7124C48.6357 14.1287 48.5252 14.6045 48.4939 15.301C48.4626 15.9992 48.4545 16.2224 48.4545 18C48.4545 19.7777 48.4624 20.0001 48.494 20.6983C48.5261 21.3951 48.6364 21.8707 48.7981 22.2869C48.9654 22.7174 49.189 23.0826 49.553 23.4464C49.9167 23.8105 50.2818 24.0347 50.712 24.2019C51.1285 24.3637 51.6042 24.474 52.3009 24.5059C52.9991 24.5377 53.222 24.5455 54.9995 24.5455C56.7772 24.5455 56.9996 24.5377 57.6977 24.5059C58.3945 24.474 58.8707 24.3637 59.2871 24.2019C59.7175 24.0347 60.0821 23.8105 60.4458 23.4464C60.8099 23.0826 61.0335 22.7174 61.2012 22.287C61.3621 21.8707 61.4726 21.3949 61.5053 20.6984C61.5367 20.0002 61.5448 19.7777 61.5448 18C61.5448 16.2224 61.5367 15.9993 61.5053 15.3011C61.4726 14.6043 61.3621 14.1287 61.2012 13.7125C61.0335 13.282 60.8099 12.9168 60.4458 12.553C60.0817 12.1889 59.7176 11.9653 59.2867 11.7982C58.8695 11.6364 58.3936 11.526 57.6968 11.4941C56.9986 11.4624 56.7764 11.4546 54.9982 11.4546H55.0003ZM54.4131 12.6341C54.5874 12.6339 54.7818 12.6341 55.0003 12.6341C56.7479 12.6341 56.955 12.6404 57.6451 12.6718C58.2833 12.701 58.6296 12.8076 58.8603 12.8972C59.1658 13.0158 59.3835 13.1576 59.6125 13.3867C59.8416 13.6158 59.9834 13.834 60.1023 14.1395C60.1919 14.3699 60.2987 14.7163 60.3277 15.3545C60.3591 16.0445 60.3659 16.2517 60.3659 17.9985C60.3659 19.7454 60.3591 19.9526 60.3277 20.6426C60.2985 21.2808 60.1919 21.6272 60.1023 21.8576C59.9837 22.1631 59.8416 22.3806 59.6125 22.6095C59.3834 22.8386 59.1659 22.9804 58.8603 23.0991C58.6299 23.1891 58.2833 23.2954 57.6451 23.3246C56.9551 23.356 56.7479 23.3628 55.0003 23.3628C53.2525 23.3628 53.0454 23.356 52.3554 23.3246C51.7173 23.2952 51.3709 23.1885 51.1401 23.0989C50.8346 22.9803 50.6164 22.8385 50.3874 22.6094C50.1583 22.3803 50.0165 22.1627 49.8976 21.8571C49.808 21.6266 49.7012 21.2803 49.6722 20.6421C49.6408 19.9521 49.6345 19.7448 49.6345 17.9969C49.6345 16.249 49.6408 16.0428 49.6722 15.3528C49.7013 14.7146 49.808 14.3683 49.8976 14.1375C50.0162 13.8321 50.1583 13.6139 50.3874 13.3848C50.6164 13.1557 50.8346 13.0139 51.1401 12.895C51.3708 12.805 51.7173 12.6986 52.3554 12.6693C52.9592 12.642 53.1932 12.6339 54.4131 12.6325V12.6341ZM58.4941 13.721C58.0604 13.721 57.7086 14.0724 57.7086 14.5061C57.7086 14.9398 58.0604 15.2916 58.4941 15.2916C58.9277 15.2916 59.2795 14.9398 59.2795 14.5061C59.2795 14.0725 58.9277 13.7207 58.4941 13.7207V13.721ZM55.0003 14.6387C53.144 14.6387 51.639 16.1437 51.639 18C51.639 19.8564 53.144 21.3607 55.0003 21.3607C56.8565 21.3607 58.361 19.8564 58.361 18C58.361 16.1437 56.8564 14.6387 55.0001 14.6387H55.0003ZM55.0003 15.8182C56.2051 15.8182 57.182 16.795 57.182 18C57.182 19.2049 56.2051 20.1819 55.0003 20.1819C53.7953 20.1819 52.8185 19.2049 52.8185 18C52.8185 16.795 53.7953 15.8182 55.0003 15.8182Z" fill="white"/>
<defs>
<clipPath id="clip0_36_1226">
<rect width="22" height="18.5714" fill="white" transform="translate(125 9)"/>
</clipPath>
<clipPath id="clip1_36_1226">
<rect width="22" height="17.6" fill="white" transform="translate(88 9)"/>
</clipPath>
</defs>
</svg>
