<svg width="50" height="50" viewBox="0 0 50 50" fill="none" xmlns="http://www.w3.org/2000/svg">
<path d="M25 50C38.8071 50 50 38.8071 50 25C50 11.1929 38.8071 0 25 0C11.1929 0 0 11.1929 0 25C0 38.8071 11.1929 50 25 50Z" fill="#FF6529"/>
<path d="M49.0906 31.7L29.041 11.6504L12.5234 38.3496L24.1582 49.9844C24.4378 49.9936 24.7182 50 25 50C36.4861 50 46.1618 42.2533 49.0906 31.7Z" fill="#E53B07"/>
<path d="M29.041 11.6504H20.959L12.5234 38.3496H18.4639L20.4658 32.0117H29.5342L31.5361 38.3496H37.4765L29.041 11.6504ZM22.2549 26.3477L25 17.6602L27.7451 26.3477H22.2549Z" fill="#F8FFFB"/>
<path d="M29.041 11.6504H25V17.6602L27.7451 26.3477H25V32.0117H29.5342L31.5361 38.3496H37.4766L29.041 11.6504Z" fill="#D8D8D8"/>
</svg>
