<svg width="30" height="30" viewBox="0 0 30 30" fill="none" xmlns="http://www.w3.org/2000/svg">
<path d="M1.75781 0L3.62114 26.256L15.0117 30L26.4022 26.256L28.2655 0H1.75781Z" fill="#FF7816"/>
<path d="M28.2656 0L26.4023 26.256L15.0117 30V0H28.2656Z" fill="#FF4B00"/>
<path d="M23.2911 7.96875H10.2656L10.5819 12.3633H22.9747L22.2188 23.0038L15.0117 25.4121L7.80469 23.0038L7.55864 19.4531H11.0743L11.1445 20.4199L15.0117 21.703L18.8789 20.4199L19.1952 15.8789H7.29497L6.48633 4.45312H23.5371L23.2911 7.96875Z" fill="#ECECF1"/>
<path d="M22.9747 12.3633L22.2188 23.0038L15.0117 25.4121V21.703L18.8789 20.4199L19.1952 15.8789H15.0117V12.3633H22.9747Z" fill="#E2E2E7"/>
<path d="M23.5371 4.45312L23.2911 7.96875H15.0117V4.45312H23.5371Z" fill="#E2E2E7"/>
</svg>
