<svg width="7" height="9" viewBox="0 0 7 9" fill="none" xmlns="http://www.w3.org/2000/svg">
<path d="M3.50001 4.81251C3.36681 4.81095 3.23633 4.85024 3.12614 4.92508C3.01594 4.99992 2.93132 5.10672 2.88366 5.23111C2.836 5.3555 2.82759 5.4915 2.85957 5.62082C2.89154 5.75013 2.96237 5.86654 3.0625 5.95438V6.56251C3.0625 6.67854 3.1086 6.78982 3.19065 6.87187C3.27269 6.95392 3.38397 7.00001 3.50001 7.00001C3.61604 7.00001 3.72732 6.95392 3.80936 6.87187C3.89141 6.78982 3.93751 6.67854 3.93751 6.56251V5.95438C4.03764 5.86654 4.10847 5.75013 4.14044 5.62082C4.17242 5.4915 4.16401 5.3555 4.11635 5.23111C4.06869 5.10672 3.98407 4.99992 3.87387 4.92508C3.76368 4.85024 3.6332 4.81095 3.50001 4.81251ZM5.68751 3.0625V2.1875C5.68751 1.60734 5.45704 1.05094 5.0468 0.640705C4.63657 0.230468 4.08017 0 3.50001 0C2.91984 0 2.36344 0.230468 1.95321 0.640705C1.54297 1.05094 1.3125 1.60734 1.3125 2.1875V3.0625C0.964405 3.0625 0.630565 3.20079 0.384423 3.44693C0.138281 3.69307 0 4.02691 0 4.37501V7.43751C0 7.78561 0.138281 8.11945 0.384423 8.36559C0.630565 8.61173 0.964405 8.75001 1.3125 8.75001H5.68751C6.03561 8.75001 6.36945 8.61173 6.61559 8.36559C6.86173 8.11945 7.00001 7.78561 7.00001 7.43751V4.37501C7.00001 4.02691 6.86173 3.69307 6.61559 3.44693C6.36945 3.20079 6.03561 3.0625 5.68751 3.0625ZM2.1875 2.1875C2.1875 1.83941 2.32578 1.50557 2.57193 1.25942C2.81807 1.01328 3.15191 0.875001 3.50001 0.875001C3.8481 0.875001 4.18194 1.01328 4.42808 1.25942C4.67423 1.50557 4.81251 1.83941 4.81251 2.1875V3.0625H2.1875V2.1875ZM6.12501 7.43751C6.12501 7.55354 6.07892 7.66482 5.99687 7.74687C5.91482 7.82892 5.80354 7.87501 5.68751 7.87501H1.3125C1.19647 7.87501 1.08519 7.82892 1.00314 7.74687C0.921095 7.66482 0.875001 7.55354 0.875001 7.43751V4.37501C0.875001 4.25897 0.921095 4.14769 1.00314 4.06565C1.08519 3.9836 1.19647 3.93751 1.3125 3.93751H5.68751C5.80354 3.93751 5.91482 3.9836 5.99687 4.06565C6.07892 4.14769 6.12501 4.25897 6.12501 4.37501V7.43751Z" fill="#D97356"/>
</svg>
