<svg width="29" height="30" viewBox="0 0 29 30" fill="none" xmlns="http://www.w3.org/2000/svg">
<path d="M15.4012 8.23565C14.6571 8.97816 13.4511 8.97816 12.707 8.23565C11.9632 7.49315 11.9632 6.28921 12.707 5.54671C13.4511 4.8042 14.6571 4.8042 15.4012 5.54671C16.1451 6.28921 16.1451 7.49315 15.4012 8.23565Z" fill="#D97356"/>
<path d="M18.0035 11.117C17.7714 11.117 17.5393 11.0285 17.3626 10.8511C17.0092 10.4972 17.0099 9.92385 17.3637 9.57068C18.0808 8.85495 18.4757 7.90348 18.4757 6.89157C18.4757 5.87967 18.0808 4.92819 17.3637 4.21247C17.0099 3.85907 17.0092 3.28594 17.3626 2.93185C17.7158 2.578 18.2891 2.57731 18.643 2.93071C19.7029 3.98862 20.2866 5.39512 20.2866 6.89157C20.2866 8.3878 19.7029 9.79453 18.643 10.8524C18.4663 11.0289 18.2349 11.117 18.0035 11.117Z" fill="#D97356"/>
<path d="M20.0518 13.7826C19.8197 13.7826 19.5877 13.6941 19.411 13.5169C19.0576 13.1628 19.0582 12.5897 19.4121 12.2363C20.8426 10.8085 21.6307 8.91034 21.6307 6.89134C21.6307 4.87234 20.8426 2.9742 19.4121 1.54641C19.0582 1.19301 19.0576 0.61988 19.411 0.265794C19.7644 -0.0880632 20.3375 -0.0887499 20.6913 0.264649C22.4648 2.03462 23.4416 4.38802 23.4414 6.89134C23.4414 9.39467 22.4648 11.7483 20.6913 13.5183C20.5146 13.6945 20.2832 13.7826 20.0518 13.7826Z" fill="#D97356"/>
<path d="M10.0999 11.1161C9.8685 11.1161 9.63709 11.028 9.46016 10.8515C8.40019 9.79364 7.81653 8.38691 7.81653 6.89068C7.81653 5.39423 8.40019 3.98773 9.46016 2.92982C9.81402 2.57642 10.3874 2.57688 10.7406 2.93096C11.094 3.28482 11.0933 3.85818 10.7394 4.21158C10.0223 4.9273 9.62748 5.87878 9.62748 6.89068C9.62748 7.90259 10.0223 8.85406 10.7394 9.56979C11.0933 9.92296 11.094 10.4963 10.7406 10.8502C10.5639 11.0273 10.3318 11.1161 10.0999 11.1161Z" fill="#D97356"/>
<path d="M8.05199 13.7837C7.82035 13.7837 7.58895 13.6956 7.41225 13.5191C5.63884 11.7492 4.66219 9.39576 4.66219 6.89244C4.66219 4.38888 5.63884 2.03548 7.41225 0.265512C7.76611 -0.0876589 8.33947 -0.0872011 8.69264 0.266885C9.04604 0.620742 9.04535 1.19387 8.69149 1.54727C7.26096 2.97506 6.4729 4.87321 6.4729 6.89221C6.4729 8.91121 7.26096 10.8096 8.69149 12.2374C9.04535 12.5908 9.04604 13.1639 8.69264 13.518C8.51594 13.6951 8.28385 13.7837 8.05199 13.7837Z" fill="#D97356"/>
<path d="M25.9855 15.3479H2.1181C0.948271 15.3479 0 16.2962 0 17.4658V27.8821C0 29.0519 0.948271 30.0002 2.1181 30.0002H25.9853C27.1552 30.0002 28.1034 29.0519 28.1034 27.8821V17.4658C28.1034 16.2962 27.1552 15.3479 25.9855 15.3479ZM6.9652 27.2827H3.6292C3.12932 27.2827 2.72396 26.8773 2.72396 26.3772V18.9709C2.72396 18.471 3.12932 18.0655 3.6292 18.0655C4.12932 18.0655 4.53467 18.4708 4.53467 18.9709V25.4717H6.9652C7.46531 25.4717 7.87067 25.8771 7.87067 26.3772C7.87067 26.8773 7.46531 27.2827 6.9652 27.2827ZM10.6759 26.3772C10.6759 26.8773 10.2705 27.2827 9.77042 27.2827C9.2703 27.2827 8.86495 26.8773 8.86495 26.3772V18.9709C8.86495 18.471 9.2703 18.0655 9.77042 18.0655C10.2705 18.0655 10.6759 18.4708 10.6759 18.9709V26.3772ZM18.2941 19.2328L16.0581 26.6388C16.0579 26.6395 16.0577 26.6402 16.0574 26.6409C15.8146 27.4697 14.5765 27.4493 14.3252 26.6409C14.325 26.6402 14.3248 26.6395 14.3245 26.6388L12.0886 19.2328C11.9441 18.7539 12.2149 18.2488 12.6937 18.1041C13.1721 17.9597 13.6777 18.2305 13.8221 18.7093L15.1913 23.2442L16.5605 18.7093C16.7052 18.2305 17.2103 17.9595 17.6892 18.1041C18.1678 18.2488 18.4387 18.7539 18.2941 19.2328ZM23.8645 21.3024C24.3646 21.3024 24.7699 21.7077 24.7699 22.2078C24.7699 22.7077 24.3646 23.1133 23.8645 23.1133H21.295V25.4717H24.3522C24.8523 25.4717 25.2577 25.8771 25.2577 26.3772C25.2577 26.8773 24.8523 27.2827 24.3522 27.2827H20.3895C19.8894 27.2827 19.4841 26.8773 19.4841 26.3772V18.9709C19.4841 18.471 19.8894 18.0655 20.3895 18.0655H24.4742C24.9741 18.0655 25.3797 18.4708 25.3797 18.9709C25.3797 19.471 24.9741 19.8764 24.4742 19.8764H21.2948V21.3024H23.8645Z" fill="#D97356"/>
</svg>
