<svg width="50" height="50" viewBox="0 0 50 50" fill="none" xmlns="http://www.w3.org/2000/svg">
<path d="M34.5229 11.5791L20.7717 31.5053L18.823 47.4463L39.1864 49.9987L42.5781 21.8301L34.5229 11.5791Z" fill="#D97356"/>
<path d="M48.7147 1.25076C47.9435 0.479568 46.8819 0.0521271 45.7953 0.00447087C44.6126 -0.0473846 43.4004 0.350858 42.5005 1.25076L32.3357 11.4492L33.3431 12.4566L34.4071 13.5206L37.4256 10.4675C40.2897 12.361 44.1594 12.0203 46.6433 9.5364L48.7147 7.46502C50.4285 5.75115 50.4285 2.96453 48.7147 1.25076ZM46.6433 5.39353L44.5719 7.46492C43.2201 8.81678 41.2031 9.10281 39.5694 8.32322L44.5719 3.32215C45.1441 2.74998 46.0711 2.74998 46.6433 3.32215C47.2141 3.89295 47.2141 4.82273 46.6433 5.39353Z" fill="#516373"/>
<path d="M37.4257 10.4668C40.2897 12.3604 44.1594 12.0196 46.6433 9.53574L48.7147 7.46435C50.4285 5.75059 50.4285 2.96396 48.7147 1.2502C47.9435 0.479004 46.8819 0.0515625 45.7953 0.00390625L33.3431 12.4561L34.4071 13.52L37.4257 10.4668ZM44.572 3.32158C45.1442 2.74941 46.0713 2.74941 46.6434 3.32158C47.2142 3.89238 47.2142 4.82217 46.6434 5.39297L44.572 7.46435C43.2202 8.81621 41.2032 9.10225 39.5695 8.32266L44.572 3.32158Z" fill="#3E4D59"/>
<path d="M34.7642 11.0342H20.3351L0 31.2986L7.25059 38.5492L14.5011 45.7998L34.7656 25.5211V11.0342H34.7642Z" fill="#D97356"/>
<path d="M34.7656 25.5211V11.0342L7.25061 38.5492L14.5011 45.7998L34.7656 25.5211Z" fill="#E64A36"/>
<path d="M27.1557 20.7706L26.0925 19.7074L25.0843 18.6992L22.8034 20.9802C21.1739 20.2127 19.182 20.461 17.8345 21.8062C16.1301 23.5106 16.1215 26.2766 17.8072 27.9927C18.4486 28.6458 18.3709 29.5567 17.8345 30.0932C17.268 30.6597 16.322 30.6815 15.7365 30.0634C15.1938 29.4904 15.2018 28.5831 15.7631 28.0218L13.6889 25.9504C12.346 27.2967 12.0975 29.2881 12.8651 30.9184L10.5833 33.2002L11.5915 34.2084L12.6546 35.2716L14.9354 32.9908C16.8355 33.8885 18.7143 33.3562 19.9059 32.1646C21.4825 30.588 21.7639 27.9142 19.8793 25.9206C19.3367 25.3464 19.3447 24.4404 19.9059 23.8791C20.466 23.3162 21.3768 23.3097 21.9484 23.8516C22.5533 24.4252 22.5527 25.3736 21.9773 25.9505L24.0487 28.0219C25.3952 26.6754 25.6444 24.6827 24.8751 23.0512L27.1557 20.7706Z" fill="white"/>
<path d="M21.9773 25.9501L24.0487 28.0215C25.3952 26.675 25.6444 24.6823 24.8751 23.0508L27.1557 20.7702L26.0925 19.707L21.9484 23.8512C22.5532 24.4248 22.5527 25.3732 21.9773 25.9501Z" fill="white"/>
<path d="M14.9354 32.9901C16.8355 33.8878 18.7143 33.3555 19.9059 32.1639C21.4825 30.5873 21.7639 27.9135 19.8793 25.9199L17.8072 27.9921C18.4486 28.6453 18.3709 29.5562 17.8345 30.0926C17.268 30.6591 16.322 30.681 15.7365 30.0628L11.5914 34.2078L12.6546 35.271L14.9354 32.9901Z" fill="white"/>
</svg>
