<svg width="326" height="323" viewBox="0 0 326 323" fill="none" xmlns="http://www.w3.org/2000/svg">
<path d="M315.587 291.496C314.134 290.68 312.314 290.022 310.385 289.584C306.027 288.597 301.167 288.524 296.43 288.463C255.381 287.964 214.613 287.781 173.552 287.781C141.221 287.526 108.902 287.258 76.5714 287.099C61.3704 287.026 46.1328 286.966 30.9807 287.672C24.7049 287.964 18.1728 288.439 12.9837 290.375C7.79459 292.312 4.49805 296.135 7.1353 299.228C11.5186 304.343 26.2066 304.051 34.6923 304.063C100.124 304.16 165.567 303.966 230.998 303.759C252.903 303.685 274.807 303.625 296.674 302.991C301.57 302.845 306.625 302.663 311.02 301.481C315.428 300.312 319.079 297.901 318.81 295.258C318.676 293.822 317.418 292.531 315.587 291.496Z" fill="#D9E0FC"/>
<path d="M317.796 178.219C316.685 178.462 315.416 178.596 313.987 178.596C264.88 178.596 215.785 178.596 166.678 178.584C142.125 178.584 117.571 178.584 93.0298 178.572C81.6015 178.572 35.7666 184.88 30.7973 173.616C29.7473 171.241 29.7473 168.623 29.7473 166.066C29.7473 117.854 29.8816 69.6431 29.8816 21.4319C29.8816 19.727 29.8816 18.0099 29.8816 16.3051C29.8816 12.7005 33.105 9.77786 37.0731 9.77786C90.7709 9.77786 144.457 9.77786 198.154 9.77786C225.907 9.77786 253.659 9.77786 281.424 9.77786C293.109 9.77786 325.098 4.34665 325.098 19.6052C325.098 48.6002 325.086 77.6073 325.086 106.602C325.086 121.435 325.086 136.279 325.086 151.111C325.073 160.549 329.42 175.649 317.796 178.219Z" fill="#D9E0FC"/>
<path d="M301.228 168.416C296.747 171.485 288.457 169.744 281.558 169.744C267.969 169.744 254.392 169.744 240.803 169.744C204.039 169.744 167.289 169.744 130.525 169.744C93.4814 169.744 56.4496 169.744 19.4057 169.744C18.1603 169.744 17.1591 168.745 17.1591 167.503C17.1469 138.776 16.9759 110.037 16.9149 81.3098C16.8783 66.9402 16.8783 52.5828 16.9393 38.2132C16.9759 28.812 13.1299 8.15877 19.4667 0.803478C21.2493 -1.25454 44.2523 1.29058 47.1215 1.29058C59.4654 1.26622 71.8093 1.24187 84.141 1.21751C108.096 1.1688 132.052 1.1201 156.007 1.05922C188.191 1.05922 220.388 0.925246 252.573 0.85218C269.507 0.815647 301.008 0.913077 303.389 0.937433C306.454 0.973965 305.135 48.5398 305.159 52.0591C305.318 71.6773 305.22 91.3076 305.037 110.926C304.903 125.575 304.695 140.225 304.537 154.887C304.512 156.835 304.488 158.784 304.488 160.732C304.5 164.666 303.242 167.028 301.228 168.416Z" fill="#D97356"/>
<path d="M295.306 153.853C286.491 153.622 277.651 153.792 268.836 153.792C260.008 153.792 251.181 153.804 242.365 153.804C224.71 153.816 207.067 153.829 189.412 153.841C154.297 153.865 119.17 153.877 84.0554 153.975C74.1534 153.999 64.2392 154.023 54.3372 154.06C44.4474 154.084 34.4843 153.963 24.6189 154.657C24.0451 154.693 24.0451 155.497 24.6189 155.546C33.4221 156.167 42.2741 156.057 51.0895 156.13C59.917 156.203 68.7445 156.179 77.5599 156.203C95.215 156.252 112.858 156.264 130.513 156.288C165.628 156.337 200.755 156.362 235.87 156.386C245.772 156.398 255.686 156.398 265.588 156.41C275.49 156.422 285.404 156.617 295.306 156.361C296.93 156.325 296.942 153.889 295.306 153.853Z" fill="#D97356"/>
<path d="M285.16 152.513C284.867 151.612 284.354 150.82 283.646 150.163C282.73 149.261 281.656 148.628 280.41 148.287C280.19 148.214 279.971 148.141 279.763 148.068C278.798 147.764 277.834 147.727 276.882 147.934C275.917 147.983 275.026 148.263 274.195 148.787C273.707 149.164 273.219 149.542 272.73 149.919C272.022 150.577 271.522 151.344 271.241 152.245C270.911 152.805 270.752 153.414 270.752 154.072C270.533 155.034 270.581 155.984 270.887 156.946C271.131 157.518 271.375 158.09 271.619 158.675C272.266 159.759 273.133 160.623 274.22 161.269C274.415 161.403 274.598 161.537 274.794 161.67C275.941 162.328 277.175 162.669 278.493 162.669C279.14 162.584 279.787 162.499 280.447 162.413C281.692 162.06 282.767 161.439 283.682 160.538C284.403 159.88 284.903 159.089 285.196 158.188C285.66 157.311 285.868 156.373 285.831 155.375C285.831 154.327 285.624 153.39 285.16 152.513Z" fill="#D97356"/>
<path d="M247.896 216.274L47.3292 213.315L48.1228 6.30759L247.31 7.84197L247.896 216.274Z" fill="white" stroke="black" stroke-width="0.5" stroke-miterlimit="10"/>
<path d="M92.2973 169.622C91.699 177.245 91.1007 184.856 90.5024 192.48C90.417 193.515 89.6844 194.391 88.5855 194.391C85.0691 194.404 81.565 194.416 78.0486 194.44C74.8985 194.452 71.7485 194.465 68.5984 194.477C67.7681 194.477 66.9012 194.489 66.1565 194.05C65.3384 193.563 64.9477 192.723 64.8378 191.822C64.6791 190.348 64.8501 188.79 64.8867 187.304C65.0088 181.02 65.2407 174.737 65.9367 168.477C66.0588 167.345 67.3286 167.089 67.9146 167.747C68.9403 167.43 70.1734 167.576 71.1868 167.576C72.4566 167.576 73.7142 167.588 74.984 167.588C80.0876 167.613 85.2035 167.637 90.3071 167.637C91.3205 167.637 92.3827 168.551 92.2973 169.622ZM86.803 190.58C87.2669 184.26 87.7186 177.939 88.1826 171.619C85.1912 171.631 82.1877 171.656 79.1963 171.668C77.3405 171.68 75.4846 171.692 73.641 171.705C72.6886 171.717 71.7484 171.717 70.7961 171.717C70.4542 171.717 70.1124 171.717 69.7705 171.717C69.4042 172.021 68.9403 172.204 68.4519 172.228C68.5495 174.262 68.6106 176.308 68.6472 178.354C68.696 181.288 68.6472 184.223 68.6106 187.158C68.5984 187.925 68.5861 188.692 68.5739 189.46C68.5617 189.861 68.5862 190.288 68.5862 190.714C68.7449 190.726 68.8914 190.738 69.0135 190.738L71.0403 190.726C76.2904 190.677 81.5406 190.629 86.803 190.58Z" fill="#D97356"/>
<path d="M92.2973 125.173C91.699 132.796 91.1007 140.407 90.5024 148.03C90.417 149.066 89.6844 149.942 88.5855 149.942C85.0691 149.955 81.565 149.967 78.0486 149.991C74.8985 150.003 71.7485 150.015 68.5984 150.028C67.7681 150.028 66.9012 150.04 66.1565 149.601C65.3384 149.114 64.9477 148.274 64.8378 147.373C64.6791 145.899 64.8501 144.341 64.8867 142.855C65.0088 136.571 65.2407 130.288 65.9367 124.028C66.0588 122.896 67.3286 122.64 67.9146 123.298C68.9403 122.981 70.1734 123.127 71.1868 123.127C72.4566 123.127 73.7142 123.139 74.984 123.139C80.0876 123.164 85.2035 123.188 90.3071 123.188C91.3205 123.188 92.3827 124.101 92.2973 125.173ZM86.803 146.131C87.2669 139.811 87.7186 133.49 88.1826 127.17C85.1912 127.182 82.1877 127.207 79.1963 127.219C77.3405 127.231 75.4846 127.243 73.641 127.255C72.6886 127.255 71.7484 127.268 70.7961 127.268C70.4542 127.268 70.1124 127.268 69.7705 127.268C69.4042 127.572 68.9403 127.755 68.4519 127.779C68.5495 129.813 68.6106 131.859 68.6472 133.904C68.696 136.839 68.6472 139.774 68.6106 142.709C68.5984 143.476 68.5861 144.243 68.5739 145.01C68.5617 145.412 68.5862 145.839 68.5862 146.265C68.7449 146.277 68.8914 146.289 69.0135 146.289L71.0403 146.277C76.2904 146.228 81.5406 146.179 86.803 146.131Z" fill="#D97356"/>
<path d="M92.2973 80.7249C91.699 88.3481 91.1007 95.9591 90.5024 103.582C90.417 104.617 89.6844 105.494 88.5855 105.494C85.0691 105.506 81.565 105.519 78.0486 105.543C74.8985 105.555 71.7485 105.567 68.5984 105.579C67.7681 105.579 66.9012 105.592 66.1565 105.153C65.3384 104.666 64.9477 103.826 64.8378 102.925C64.6791 101.451 64.8501 99.8925 64.8867 98.4068C65.0088 92.1232 65.2407 85.8395 65.9367 79.5802C66.0588 78.4477 67.3286 78.1919 67.9146 78.8495C68.9403 78.5329 70.1734 78.6791 71.1868 78.6791C72.4566 78.6791 73.7142 78.6912 74.984 78.6912C80.0876 78.7156 85.2035 78.7399 90.3071 78.7399C91.3205 78.7399 92.3827 79.6533 92.2973 80.7249ZM86.803 101.683C87.2669 95.3624 87.7186 89.0422 88.1826 82.722C85.1912 82.7342 82.1877 82.7586 79.1963 82.7707C77.3405 82.7829 75.4846 82.7951 73.641 82.8073C72.6886 82.8073 71.7484 82.8195 70.7961 82.8195C70.4542 82.8195 70.1124 82.8195 69.7705 82.8195C69.4042 83.1239 68.9403 83.3066 68.4519 83.3309C68.5495 85.3646 68.6106 87.4104 68.6472 89.4563C68.696 92.3911 68.6472 95.3259 68.6106 98.2607C68.5984 99.0279 68.5861 99.7951 68.5739 100.562C68.5617 100.964 68.5862 101.39 68.5862 101.817C68.7449 101.829 68.8914 101.841 69.0135 101.841L71.0403 101.829C76.2904 101.78 81.5406 101.731 86.803 101.683Z" fill="#D97356"/>
<path d="M200.401 83.0506C193.991 82.8802 187.569 83.0141 181.159 83.0263C174.81 83.0385 168.448 83.0385 162.099 83.0506C149.267 83.0628 136.435 83.1237 123.615 83.1846C120.037 83.1968 116.46 83.2211 112.882 83.2333C109.256 83.2455 105.581 83.1724 101.967 83.4282C101.503 83.4647 101.503 84.1101 101.967 84.1345C105.154 84.3537 108.389 84.2928 111.588 84.3171C114.799 84.3537 117.998 84.3537 121.209 84.3658C127.558 84.4024 133.92 84.4267 140.269 84.4633C153.101 84.5241 165.933 84.512 178.753 84.5363C185.969 84.5485 193.197 84.7068 200.401 84.512C201.353 84.4998 201.353 83.075 200.401 83.0506Z" fill="#969696"/>
<path d="M155.628 89.9799C141.77 89.8216 127.912 89.6877 114.055 89.6877C110.099 89.6877 106.131 89.6511 102.175 89.712C101.418 89.7242 101.418 90.8811 102.175 90.8932C116.02 91.1124 129.89 90.9054 143.748 90.8202C147.704 90.7958 151.672 90.6741 155.628 90.6253C156.043 90.6253 156.043 89.9921 155.628 89.9799Z" fill="#969696"/>
<path d="M198.178 97.3467C185.688 97.1153 173.185 97.298 160.695 97.3223C148.205 97.3467 135.702 97.3589 123.211 97.3832C116.154 97.3954 109.109 97.4076 102.052 97.5293C101.478 97.5415 101.478 98.4061 102.052 98.4183C114.543 98.6497 127.045 98.5766 139.536 98.5888C152.026 98.6132 164.529 98.6253 177.019 98.6497C184.076 98.6619 191.121 98.7228 198.178 98.5888C198.984 98.5888 198.984 97.3589 198.178 97.3467Z" fill="#969696"/>
<path d="M165.823 127.305C161.598 127.025 157.313 127.256 153.076 127.268C148.827 127.28 144.578 127.292 140.329 127.305C131.831 127.329 123.346 127.353 114.848 127.378C110.037 127.39 105.251 127.451 100.441 127.621C100.099 127.633 100.099 128.145 100.441 128.157C108.926 128.437 117.424 128.401 125.922 128.425C134.42 128.449 142.906 128.474 151.403 128.498C153.748 128.51 156.08 128.51 158.424 128.522C160.878 128.535 163.357 128.632 165.811 128.461C166.58 128.425 166.58 127.353 165.823 127.305Z" fill="#969696"/>
<path d="M191.549 137.083C179.706 136.742 167.838 136.876 155.995 136.852C144.261 136.828 132.54 136.815 120.807 136.779L110.807 136.754C107.486 136.742 104.128 136.596 100.807 136.852C100.001 136.913 100.001 138.045 100.807 138.106C103.762 138.338 106.741 138.216 109.696 138.216C112.663 138.204 115.617 138.204 118.584 138.191C124.506 138.179 130.44 138.167 136.362 138.155C148.095 138.131 159.816 138.118 171.55 138.094C178.216 138.082 184.883 138.082 191.549 137.887C192.062 137.863 192.062 137.095 191.549 137.083Z" fill="#969696"/>
<path d="M195.016 174.505C182.648 174.2 170.28 174.346 157.911 174.359C145.543 174.359 133.175 174.371 120.806 174.407C113.884 174.432 106.948 174.517 100.026 174.432C99.2198 174.42 99.2198 175.686 100.026 175.686C112.394 175.54 124.762 175.747 137.131 175.759C149.499 175.759 161.867 175.771 174.236 175.771C181.158 175.771 188.081 175.783 195.016 175.613C195.725 175.601 195.725 174.529 195.016 174.505Z" fill="#969696"/>
<path d="M120.025 181.032C113.481 181.032 106.948 181.166 100.416 181.227C99.9523 181.227 99.9523 181.933 100.416 181.933C106.948 181.994 113.493 182.128 120.025 182.128C120.745 182.14 120.745 181.032 120.025 181.032Z" fill="#969696"/>
<path d="M186.165 181.848C178.924 181.373 171.623 181.58 164.371 181.617C157.045 181.654 149.719 181.702 142.393 181.739C138.266 181.763 134.14 181.787 130.025 181.995C129.561 182.019 129.561 182.689 130.025 182.701C137.277 183.066 144.554 182.969 151.819 183.005C159.145 183.042 166.471 183.091 173.796 183.091C177.923 183.091 182.05 183.115 186.165 182.847C186.812 182.81 186.824 181.897 186.165 181.848Z" fill="#969696"/>
<path d="M158.095 189.02C150.854 188.643 143.553 188.923 136.313 188.947C129.121 188.971 121.906 188.947 114.714 189.203C110.599 189.349 106.46 189.3 102.346 189.312C101.931 189.312 101.931 189.958 102.346 189.958C116.814 190.031 131.27 190.299 145.739 190.36C149.865 190.372 153.992 190.469 158.107 190.25C158.888 190.214 158.888 189.069 158.095 189.02Z" fill="#969696"/>
<path d="M231.731 33.4392C224.747 32.8912 217.568 33.3175 210.559 33.3175C203.942 33.3175 197.324 33.3296 190.719 33.3296C177.264 33.3418 163.821 33.3418 150.366 33.354C136.911 33.3662 123.468 33.3905 110.013 33.4514C96.4117 33.5123 82.5539 32.94 69.0012 34.109C66.0343 34.3647 66.0221 38.3955 69.0012 38.6634C82.5539 39.8325 96.4117 39.2602 110.013 39.321C123.468 39.3819 136.911 39.4063 150.366 39.4185C163.821 39.4306 177.264 39.4306 190.719 39.4428C197.336 39.4428 203.954 39.455 210.559 39.455C217.568 39.455 224.735 39.8812 231.731 39.3332C235.577 39.0166 235.589 33.7437 231.731 33.4392Z" fill="black"/>
<path d="M199.168 50.4266C196.934 48.6608 195.163 48.9774 192.33 48.9774C189.693 48.9774 187.056 48.9774 184.419 48.9774L167.936 48.9896C156.727 49.0018 145.519 49.0018 134.31 49.014L101.344 49.0383C95.6304 49.0383 89.9163 49.0992 84.2022 49.1723C79.4649 49.2332 73.1158 48.3198 68.818 50.4753C67.6825 51.0476 67.6825 52.8621 68.818 53.4345C73.128 55.6021 79.4527 54.6766 84.2022 54.7375C89.6965 54.8105 95.1908 54.8592 100.685 54.8714C111.894 54.8836 123.102 54.8836 134.31 54.8958L167.276 54.9201C172.99 54.9201 178.705 54.9323 184.419 54.9323C187.056 54.9323 189.693 54.9323 192.33 54.9323C195.09 54.9323 196.958 55.2246 199.168 53.4832C200.035 52.8134 200.023 51.1085 199.168 50.4266Z" fill="black"/>
<path d="M148.229 143.719C146.313 143.183 144.786 141.052 144.005 139.287C143.175 137.399 143.333 134.927 144.921 133.612C145.934 132.772 147.338 132.552 148.657 132.686C152.747 133.137 155.897 136.802 157.02 140.76C158.144 144.706 157.667 148.919 157.191 152.999C156.837 155.982 156.483 158.966 156.129 161.949C155.445 167.746 156.214 173.81 156.214 179.655C156.214 180.386 156.239 181.141 156.593 181.774C157.252 182.943 158.742 183.272 160.073 183.479C166.458 184.502 173.027 185.732 179.523 185.501C184.736 185.318 187.715 183.771 192.465 187.449C195.065 189.458 197.056 192.588 196.726 195.852C196.543 197.605 195.713 199.249 194.589 200.625C190.157 206.02 182.245 206.751 175.249 206.58C166.996 206.373 158.754 205.496 150.635 203.962C142.393 202.391 136.643 198.275 135.947 189.568C135.287 181.324 137.863 173.092 140.11 165.261C142.198 157.979 146.276 151.269 148.144 144.048C148.181 143.914 148.205 143.817 148.229 143.719Z" fill="#FBC2AA"/>
<path d="M194.504 191.663C194.443 191.297 194.382 190.932 194.321 190.579C193.796 186.962 193.295 182.444 197.239 181.312C199.84 180.557 204.394 180.898 206.127 178.487C206.689 177.707 206.848 176.733 206.982 175.795C207.19 174.456 207.385 173.104 207.593 171.765C200.035 173.055 196.885 166.309 195.932 160.001C194.956 153.559 195.163 145.522 200.853 141.211C204.479 138.459 209.558 137.801 213.819 139.409C218.081 141.016 221.414 144.791 222.623 149.175C223.514 152.414 222.452 153.596 222.269 156.944C222.049 160.732 222.391 167.271 222.183 171.058C222.037 173.603 222.256 176.575 223.648 178.791C224.283 179.802 225.052 180.666 226.127 181.214C226.908 181.616 228.935 181.397 229.423 181.933C232.195 184.965 234.783 188.18 237.787 190.969C230.693 193.94 223.282 196.059 215.7 197.35C210.389 198.263 199.644 201.393 195.981 195.754C195.175 194.512 194.772 193.1 194.504 191.663Z" fill="#FBC2AA"/>
<path d="M257.334 209.503C256.577 200.163 252.377 190.592 243.843 185.915C240.705 184.198 237.25 183.163 233.782 182.347C231.999 181.921 230.192 181.556 228.41 181.154C226.407 180.703 226.005 181.178 224.637 182.676C221.817 185.794 217.36 187.182 213.172 186.743C210.523 186.476 207.971 185.514 205.7 184.15C203.234 182.664 202.367 180.837 199.241 181.008C189.779 181.544 180.328 182.396 170.915 183.565C171.611 191.748 172.16 203.342 173.869 211.367C178.851 210.867 189.864 209.771 189.852 211.281C189.84 213.583 189.888 215.897 189.962 218.198C190.12 222.692 190.401 227.185 190.584 231.679C190.78 236.453 191.134 241.226 191.561 245.975C192.05 251.395 192.88 256.716 194.089 261.977C206.396 266.069 220.437 265.07 233.636 263.877C237.396 263.536 241.303 263.158 244.563 261.246C253.72 255.864 254.111 239.935 255.417 230.668C256.431 223.532 257.92 216.822 257.334 209.503Z" fill="#D97356"/>
<path d="M162.917 302.577C163.076 302.346 163.247 302.114 163.418 301.895C166.605 297.816 172.111 295.161 176.617 292.762C181.586 290.119 187.141 287.94 192.867 288.268C198.032 288.561 205.199 292.056 206.274 297.511C206.396 298.132 206.445 298.79 206.2 299.362C205.59 300.799 203.649 300.921 202.086 300.933C195.419 300.994 189.009 303.04 182.782 305.244C179.583 306.377 176.397 307.582 173.149 308.617C170.255 309.543 163.223 313.598 161.196 309.384C160.085 307.083 161.635 304.452 162.917 302.577Z" fill="black"/>
<path d="M134.017 247.802C136.716 244.831 140.549 242.907 144.481 242.164C150 241.129 155.702 242.127 161.123 243.625C172.6 246.779 183.356 252.089 194.882 255.048C199.998 256.363 203.331 255.876 208.325 255.474C214.662 254.963 221.169 255.584 227.543 255.206C233.501 254.853 239.948 254.39 245.528 256.034C246.26 255.547 246.993 255.072 247.725 254.585C253.952 250.505 260.167 246.45 267.981 247.936C274.123 249.105 280.056 252.21 283.854 257.252C287.895 262.61 286.686 269.612 283.06 274.958C280.056 279.379 275.624 282.642 271.034 285.382C255.198 294.856 237.897 300.665 219.204 299.374C216.701 299.204 213.758 299.167 211.951 301.177C211.28 301.932 210.877 306.06 209.375 305.877C207.519 305.658 203.954 305.147 202.208 304.513C192.758 301.116 183.32 297.706 173.869 294.308C165.567 291.313 157.216 288.305 149.658 283.763C143.113 279.841 137.192 274.532 133.724 267.652C131.221 262.695 129.17 256.168 131.783 251.017C132.393 249.836 133.138 248.764 134.017 247.802Z" fill="#FFC107"/>
<path d="M251.242 262.05C245.931 264.692 240.375 266.385 235.284 269.527C230.205 272.656 225.394 276.31 219.863 278.684C216.286 280.219 211.084 280.815 207.653 282.52" stroke="black" stroke-width="0.5" stroke-miterlimit="10"/>
<path d="M212.073 300.457C212.085 300.445 212.085 300.421 212.098 300.409C212.598 299.264 213.087 298.119 213.587 296.975C214.576 294.697 215.565 292.432 216.542 290.155C216.652 289.899 225.138 294.198 225.87 294.795C226.2 295.063 226.517 295.355 226.725 295.72C227.018 296.22 227.079 296.816 227.152 297.389C227.348 298.996 227.592 300.64 227.286 302.235C226.981 303.831 225.992 305.402 224.454 305.913C223.282 306.303 222.012 306.023 220.815 305.755C218.532 305.231 216.298 304.744 214.051 304.086C213.404 303.892 211.707 303.831 211.243 303.368C210.657 302.796 211.817 301.066 212.073 300.457Z" fill="#FBC2AA"/>
<path d="M221.524 291.897C222.146 291.982 222.793 292.007 223.465 291.946C224.832 291.836 226.175 291.447 227.543 291.471C230.266 291.52 231.45 293.639 232.585 295.782C234.588 299.569 238.202 302.333 241.132 305.378C244.807 309.189 246.932 312.782 246.333 318.237C246.126 320.161 245.344 322.366 243.476 322.889C241.755 323.376 240.058 322.171 238.678 321.038C234.93 317.969 231.169 314.913 227.421 311.844C225.711 310.444 223.965 308.581 222.024 307.533C220.791 306.876 219.387 306.389 218.105 305.743C219.485 301.189 220.644 296.573 221.524 291.897Z" fill="black"/>
<path d="M202.367 264.534C201.683 264.193 201.158 263.572 200.755 262.415C200.071 260.467 200.474 258.165 201.573 256.448C202.989 254.232 205.59 252.527 208.166 251.991C210.816 251.431 213.38 250.493 216.078 249.945C218.019 249.556 219.924 249.02 221.829 248.484C227.653 246.852 233.928 245.61 239.459 243.175C239.801 243.028 240.143 242.858 240.339 242.541C240.595 242.115 240.485 241.579 240.363 241.092C238.507 233.652 236.81 226.175 235.259 218.661C234.734 216.104 234.222 213.522 234.246 210.916C234.295 206.179 236.199 201.491 239.472 198.056C241.474 195.95 244.246 194.257 247.127 194.586C249.496 194.866 251.535 196.498 252.878 198.483C254.221 200.468 254.941 202.769 255.662 205.034C258.079 212.694 260.887 220.451 261.974 228.415C262.255 230.498 262.243 232.604 262.23 234.699C262.194 240.727 262.035 247.132 258.714 252.162C247.774 268.674 222.403 266.641 205.395 265.058C204.125 264.972 203.148 264.924 202.367 264.534Z" fill="#FBC2AA"/>
<path d="M207.177 136.267C204.1 136.73 201.145 137.972 198.667 139.993C195.908 142.246 195.041 144.633 194.467 148.164C194.43 148.396 194.406 148.651 194.54 148.846C194.687 149.053 194.98 149.102 195.236 149.139C199.631 149.662 204.051 150.04 208.483 150.271C208.972 150.295 209.472 150.32 209.924 150.137C211.047 149.687 211.487 148.164 212.635 147.775C212.793 149.248 212.684 150.758 212.329 152.195C212.171 152.828 211.963 153.498 212.171 154.119C212.586 155.374 214.063 155.349 215.016 155.922C216.2 156.628 217.348 158.065 217.799 159.356C218.398 161.06 218.666 162.924 219.716 164.434C219.985 164.823 220.302 165.176 220.608 165.53C221.181 166.187 221.743 166.845 222.317 167.502C222.671 167.235 222.842 166.808 222.988 166.406C224.185 163.192 225.455 160.001 226.212 156.664C226.896 153.669 226.871 150.478 226.09 147.507C225.748 146.167 225.125 144.816 224.502 143.586C224.161 142.904 223.709 142.185 223.269 141.552C223.135 141.357 221.816 139.64 221.584 139.786C221.877 139.591 222.244 139.226 222.109 138.836C221.951 138.374 220.876 138.702 220.583 138.861C220.754 138.593 220.998 138.361 221.169 138.093C221.34 137.826 221.45 137.472 221.316 137.18C221.23 136.997 221.059 136.864 220.876 136.766C220.4 136.535 219.826 136.596 219.374 136.851C218.898 137.119 218.495 137.606 218.385 138.13C214.771 136.547 211.17 135.67 207.177 136.267Z" fill="black"/>
<path d="M159.743 252.867C170.377 257.665 178.936 265.995 188.606 272.498C197.641 278.562 207.653 283.019 217.604 287.452C217.079 288.584 216.871 289.717 216.359 290.849" stroke="black" stroke-width="0.5" stroke-miterlimit="10"/>
<path d="M205.163 162.351C204.528 164.422 201.988 165.676 199.961 164.933" stroke="#1C1C1B" stroke-width="0.5" stroke-miterlimit="10"/>
<path d="M215.895 161.742C219.814 162.716 222.256 158.6 221.059 155.909C219.399 152.171 214.149 152.792 213.184 156.725" fill="#FBC2AA"/>
<path d="M217.897 155.605C217.165 155.398 216.31 155.52 215.687 155.921C215.064 156.323 214.71 156.981 214.735 157.626" stroke="#1C1C1B" stroke-width="0.5" stroke-miterlimit="10"/>
<path d="M247.078 189.959C239.923 190.714 233.367 195.67 230.717 202.355C227.97 209.297 229.338 217.09 230.742 224.421C235.357 224.287 239.435 224.604 244.026 223.703C249.984 222.534 255.772 220.695 261.376 218.43C259.715 207.823 256.638 197.655 249.044 190.007C248.311 189.252 248.128 189.849 247.078 189.959Z" fill="#D97356"/>
<path d="M166.41 121.361C160.476 123.955 155.104 127.304 150.012 131.298C147.546 133.235 145.214 135.414 143.016 137.643C141.844 138.836 140.733 140.103 139.634 141.357C139.402 140.663 139.17 139.981 138.938 139.299C138.193 137.083 137.351 134.927 136.423 132.784C135.556 130.75 134.604 128.753 133.578 126.793C132.504 124.735 131.466 121.983 129.268 120.947C127.754 120.229 126.399 121.13 126.191 122.713C125.886 125.051 127.742 127.219 128.792 129.192C129.83 131.152 130.794 133.137 131.673 135.171C132.479 137.01 133.224 138.946 133.895 140.87C134.628 142.952 135.141 145.132 135.91 147.19C136.667 149.212 139.304 149.711 140.537 147.787C142.137 145.278 144.384 143.001 146.423 140.833C148.51 138.617 150.696 136.523 152.93 134.452C157.436 130.275 162.234 126.354 167.203 122.738C168.046 122.129 167.35 120.947 166.41 121.361Z" fill="#D97356"/>
<path d="M235.662 270.367H175.383C174.504 270.367 173.784 269.648 173.784 268.772C173.784 267.895 174.504 267.176 175.383 267.176H235.662C236.541 267.176 237.261 267.895 237.261 268.772C237.261 269.648 236.541 270.367 235.662 270.367Z" fill="black"/>
<path d="M226.725 268.199H173.967L163.015 241.214C162.661 240.337 163.308 239.375 164.26 239.375H214.124C214.674 239.375 215.162 239.704 215.37 240.215L226.725 268.199Z" fill="black"/>
<path d="M189.314 253.805C189.876 255.267 191.768 256.448 193.539 256.448C195.309 256.448 196.298 255.267 195.736 253.805C195.175 252.344 193.282 251.163 191.512 251.163C189.741 251.163 188.752 252.344 189.314 253.805Z" stroke="white" stroke-width="0.5" stroke-miterlimit="10"/>
<path d="M207.202 171.606C207.3 172.617 207.214 173.628 207.116 174.626C207.178 174.614 207.251 174.59 207.312 174.578C209.387 173.932 211.097 172.252 211.976 170.267C210.523 171.071 208.875 171.521 207.202 171.606Z" fill="black"/>
<path d="M148.327 143.878C146.043 142.319 143.736 140.748 141.892 138.702C141.514 138.288 141.16 137.825 141.062 137.277C140.964 136.729 141.245 136.084 141.782 135.938C142.381 135.779 142.93 136.279 143.394 136.705C145.14 138.325 147.448 139.36 149.828 139.579" fill="white"/>
<path d="M148.327 143.878C146.043 142.319 143.736 140.748 141.892 138.702C141.514 138.288 141.16 137.825 141.062 137.277C140.964 136.729 141.245 136.084 141.782 135.938C142.381 135.779 142.93 136.279 143.394 136.705C145.14 138.325 147.448 139.36 149.828 139.579" stroke="#1C1C1B" stroke-width="0.5" stroke-miterlimit="10"/>
<path d="M227.982 312.915C228.08 312.854 228.177 312.781 228.275 312.708C228.385 312.623 228.507 312.574 228.629 312.513C228.873 312.404 229.105 312.294 229.35 312.197C229.252 312.246 229.142 312.282 229.044 312.331C229.496 312.136 229.936 311.892 230.326 311.6C230.424 311.527 230.51 311.454 230.607 311.369C230.766 311.223 230.925 311.089 231.144 311.028C231.535 310.906 232.024 311.101 232.231 311.454C232.414 311.771 232.402 312.124 232.243 312.44C232.207 312.513 232.158 312.574 232.121 312.647C232.036 312.781 231.95 312.915 231.853 313.037C231.608 313.366 231.352 313.683 231.059 313.963C230.766 314.255 230.448 314.523 230.094 314.73C229.875 314.864 229.643 315.01 229.386 315.059C229.13 315.119 228.861 315.144 228.605 315.168C228.495 315.156 228.385 315.144 228.287 315.119C228.129 315.083 227.994 315.01 227.872 314.9C227.677 314.742 227.494 314.523 227.433 314.267C227.298 313.731 227.518 313.22 227.982 312.915Z" fill="#D97356"/>
<path d="M225.064 309.567C225.125 309.36 225.235 309.178 225.382 309.019C225.65 308.715 225.931 308.41 226.2 308.094C226.322 307.96 226.456 307.875 226.627 307.826C226.786 307.741 226.957 307.704 227.14 307.716C227.323 307.704 227.494 307.753 227.653 307.826C227.811 307.875 227.958 307.972 228.08 308.094C228.153 308.179 228.214 308.277 228.288 308.362C228.41 308.569 228.471 308.788 228.471 309.019C228.458 309.141 228.434 309.251 228.422 309.373C228.361 309.592 228.251 309.787 228.08 309.957C227.775 310.237 227.469 310.505 227.152 310.773C227.042 310.895 226.908 310.98 226.749 311.029C226.603 311.102 226.444 311.138 226.273 311.138C226.102 311.15 225.943 311.114 225.797 311.029C225.638 310.98 225.504 310.895 225.394 310.773C225.333 310.688 225.26 310.602 225.198 310.517C225.089 310.322 225.028 310.115 225.028 309.884C225.028 309.787 225.04 309.677 225.064 309.567Z" fill="#D97356"/>
<path d="M221.45 306.389C221.646 306.096 221.841 305.804 222.036 305.512C222.11 305.378 222.219 305.256 222.341 305.183C222.451 305.074 222.598 305.013 222.744 304.964C222.903 304.915 223.062 304.903 223.221 304.94C223.379 304.952 223.526 304.988 223.66 305.086C223.746 305.147 223.819 305.207 223.904 305.268C224.051 305.414 224.161 305.597 224.21 305.792C224.222 305.902 224.234 305.999 224.258 306.109C224.258 306.328 224.197 306.523 224.1 306.705C223.904 306.998 223.709 307.29 223.514 307.582C223.44 307.716 223.33 307.838 223.208 307.911C223.098 308.021 222.952 308.081 222.805 308.13C222.647 308.179 222.488 308.191 222.329 308.154C222.171 308.142 222.024 308.106 221.89 308.008C221.804 307.947 221.731 307.887 221.646 307.826C221.499 307.68 221.389 307.497 221.34 307.302C221.328 307.192 221.316 307.095 221.304 306.985C221.279 306.778 221.34 306.571 221.45 306.389Z" fill="#D97356"/>
<path d="M178.973 303.575C179.046 303.32 179.241 303.052 179.473 302.93C179.73 302.796 180.035 302.735 180.316 302.82C180.401 302.857 180.487 302.893 180.572 302.93C180.731 303.027 180.865 303.161 180.963 303.32C181.146 303.563 181.342 303.807 181.525 304.05C181.622 304.172 181.732 304.282 181.83 304.391C181.879 304.44 181.928 304.489 181.964 304.537C182.05 304.623 182.135 304.72 182.196 304.83C182.257 304.927 182.306 305.061 182.343 305.171C182.428 305.438 182.501 305.706 182.587 305.974C182.685 306.303 182.55 306.656 182.282 306.863C182.025 307.058 181.635 307.107 181.342 306.924C181.146 306.802 180.963 306.681 180.768 306.559C180.719 306.522 180.67 306.498 180.621 306.461C180.426 306.327 180.267 306.181 180.145 305.974C180.072 305.865 180.011 305.755 179.937 305.645C179.681 305.219 179.364 304.83 179.071 304.428C178.924 304.196 178.912 303.819 178.973 303.575Z" fill="#D97356"/>
<path d="M183.637 301.98C183.71 301.724 183.906 301.456 184.138 301.335C184.516 301.127 184.992 300.969 185.261 301.383C185.688 302.053 186.116 302.723 186.555 303.393C186.897 303.928 187.251 304.549 187.044 305.146C186.983 305.341 186.848 305.524 186.653 305.621C186.384 305.743 186.067 305.658 185.798 305.511C185.334 305.256 185.078 304.805 184.797 304.367C184.724 304.257 184.663 304.148 184.59 304.038C184.333 303.612 184.016 303.222 183.723 302.82C183.588 302.601 183.564 302.223 183.637 301.98Z" fill="#D97356"/>
<path d="M174.688 305.402C174.736 305.244 174.834 305.097 174.956 304.988C175.2 304.756 175.53 304.598 175.872 304.61C176.202 304.622 176.568 304.732 176.788 304.988C177.276 305.572 177.764 306.145 178.241 306.729C178.363 306.851 178.46 306.985 178.509 307.143C178.595 307.302 178.631 307.46 178.619 307.643C178.631 307.825 178.583 307.983 178.509 308.142C178.46 308.3 178.363 308.446 178.241 308.556C177.996 308.787 177.667 308.946 177.325 308.933C176.995 308.921 176.629 308.812 176.409 308.556C175.921 307.971 175.432 307.399 174.956 306.814C174.834 306.693 174.736 306.559 174.688 306.4C174.602 306.242 174.566 306.084 174.578 305.901C174.566 305.718 174.602 305.56 174.688 305.402Z" fill="#D97356"/>
<path d="M281.815 263.06C281.253 264.18 281.546 265.581 281.009 266.713C280.618 267.553 279.837 268.138 279.3 268.905C278.469 270.099 278.335 271.779 279.129 272.997C279.91 274.215 281.632 274.787 282.938 274.142C283.976 273.63 284.574 272.51 284.989 271.426C285.844 269.185 286.748 265.678 286.015 263.291C285.404 261.355 282.865 260.941 281.815 263.06Z" fill="black"/>
<path d="M132.137 254.718C133.077 253.963 134.469 253.781 135.556 254.341C136.63 254.901 137.302 256.179 137.07 257.361C136.948 258.006 136.581 258.615 136.557 259.273C136.52 260.113 137.033 260.88 137.302 261.684C137.705 262.877 137.534 264.29 136.691 265.215C135.849 266.153 134.323 266.457 133.272 265.775C132.161 265.045 131.881 263.571 131.673 262.256C131.307 259.894 129.854 256.545 132.137 254.718Z" fill="black"/>
<path d="M191.928 208.566C191.818 208.457 191.598 208.432 191.488 208.566C191.195 208.932 190.878 209.297 190.609 209.675C190.475 209.857 190.34 210.04 190.206 210.223C190.072 210.405 189.913 210.588 189.791 210.795C189.644 211.038 189.974 211.282 190.182 211.087C190.34 210.929 190.487 210.746 190.633 210.576C190.78 210.405 190.926 210.235 191.073 210.064C191.378 209.723 191.647 209.358 191.928 209.005C192.025 208.871 192.05 208.7 191.928 208.566Z" fill="black"/>
<path d="M237.689 224.19C236.761 224.202 235.858 224.385 234.991 224.701C234.722 222.863 234.454 221.036 234.173 219.197C233.88 217.261 233.526 215.325 233.257 213.376C233.245 213.279 233.074 213.303 233.086 213.401C233.306 215.385 233.44 217.37 233.672 219.355C233.904 221.304 234.161 223.252 234.429 225.201C234.454 225.359 234.673 225.469 234.808 225.42C235.723 225.042 236.676 224.848 237.677 224.823C238.104 224.811 238.104 224.19 237.689 224.19Z" fill="black"/>
<path d="M104.678 286.722C102.932 289.962 99.2199 291.532 95.8134 292.324C94.7878 292.568 93.75 292.75 92.7122 292.945C91.8942 293.091 91.0273 293.189 90.2458 293.493C88.4632 294.175 90.4168 295.271 91.3203 295.673C91.8575 295.916 91.9918 296.696 91.711 297.171C91.3814 297.706 90.7587 297.804 90.2093 297.56C89.4645 297.219 88.6464 296.72 88.0726 296.075L86.9126 299.972H69.4041L68.0366 275.275L94.4338 274.837L93.7379 277.163C96.656 276.323 100.246 276.006 102.858 277.759C105.813 279.757 106.302 283.69 104.678 286.722ZM101.674 279.757C99.2444 278.052 95.6913 278.697 93.0785 279.55C93.0541 279.562 93.0297 279.574 93.0052 279.574L89.4523 291.447C90.0627 291.216 90.7343 291.057 91.3325 290.936C94.7512 290.242 98.6217 289.754 101.271 287.246C103.261 285.371 104.336 281.632 101.674 279.757Z" fill="#D97356"/>
<path d="M89.3667 280.95C88.8173 282.874 88.2679 284.786 87.7917 286.722C87.694 287.112 88.2679 287.258 88.39 286.88C89.0127 284.981 89.5621 283.057 90.1115 281.145C90.2458 280.682 89.501 280.487 89.3667 280.95Z" fill="black"/>
<path d="M86.8881 290.205C86.6073 291.167 86.3264 292.117 86.0456 293.079C85.7648 294.041 85.5573 295.015 85.3131 295.977C85.2154 296.379 85.8015 296.538 85.9235 296.148C86.2288 295.198 86.5707 294.248 86.8393 293.298L87.6451 290.412C87.7795 289.925 87.0224 289.718 86.8881 290.205Z" fill="black"/>
<path d="M85.875 287.441C85.7773 287.416 85.643 287.465 85.6186 287.587C85.5453 288.001 85.4843 288.415 85.411 288.817C85.3988 288.926 85.4354 289.048 85.5575 289.072C85.6552 289.097 85.7895 289.048 85.814 288.926C85.8872 288.512 85.9482 288.098 86.0215 287.696C86.0337 287.587 85.9849 287.465 85.875 287.441Z" fill="black"/>
<path d="M258.14 245.635C257.982 247.9 256.932 250.006 255.381 251.638C255.198 251.833 255.479 252.101 255.674 251.93C257.444 250.335 258.421 248.009 258.494 245.635C258.494 245.403 258.153 245.415 258.14 245.635Z" fill="black"/>
<path d="M143.309 195.889C142.368 195.462 141.428 195.024 140.488 194.61C140.293 194.525 140.11 194.817 140.317 194.902C141.257 195.341 142.197 195.755 143.138 196.181C143.333 196.266 143.516 195.974 143.309 195.889Z" fill="black"/>
<path d="M81.3452 224.104C78.8911 227.197 75.8997 229.828 73.2502 232.751C70.442 235.844 68.2809 239.46 65.4727 242.553C63.0308 245.257 60.1127 247.534 56.9137 249.276C54.655 250.506 49.3926 253.465 46.7065 252.807C41.5052 251.516 45.4001 242.785 47.0362 239.911C48.9897 236.465 51.7369 233.481 54.6428 230.814C57.683 228.038 60.9795 225.566 64.2517 223.081C67.9268 220.281 71.5897 217.492 75.2648 214.691C76.1561 214.021 77.023 213.315 77.9387 212.67C78.6957 212.134 79.526 211.695 80.4539 211.586C82.0534 211.415 83.5063 212.463 84.2755 213.802C86.2901 217.321 83.4941 221.401 81.3452 224.104Z" fill="#D97356"/>
<path d="M25.6938 229.694C26.4385 225.7 28.0624 221.925 28.9904 217.979C30.2235 212.743 30.2235 207.299 31.1881 202.014C32.1526 196.729 34.326 191.31 38.7215 188.217C39.9424 187.365 41.3343 186.695 42.8116 186.585C45.4855 186.378 48.0374 188.034 49.5514 190.251C51.0531 192.455 51.6758 195.146 52.0421 197.801C53.495 208.237 51.4439 219.136 46.2792 228.33C44.6675 231.204 42.7628 233.907 41.3587 236.879C39.4906 240.812 38.5139 245.147 38.3185 249.495C38.2331 251.382 38.2696 253.355 37.4394 255.06C36.6458 256.716 33.7399 259.237 31.7375 258.178C29.9549 257.228 28.7218 251.638 28.0869 249.836C25.8525 243.406 24.424 236.489 25.6938 229.694Z" fill="#D97356"/>
<path d="M8.18533 229.62C7.81904 227.672 7.5138 225.431 8.79581 223.921C10.5662 221.827 14.1314 222.691 16.0483 224.652C18.2583 226.905 19.174 230.132 19.4548 233.274C19.7356 236.415 19.4792 239.582 19.7234 242.711C20.1019 247.521 21.6647 252.137 22.6781 256.849C23.6061 261.136 21.8479 264.059 18.6612 259.821C16.5001 256.959 14.8762 253.647 13.5454 250.334C10.8959 243.685 9.51618 236.61 8.18533 229.62Z" fill="#D97356"/>
<path d="M67.9391 226.638C66.9746 228.391 65.8879 230.035 64.5937 231.558C63.2995 233.068 61.8709 234.468 60.4057 235.82C57.4632 238.523 54.2887 240.983 51.4927 243.845C50.1497 245.221 48.8921 246.682 47.8176 248.277C46.56 250.141 45.6321 252.174 44.924 254.305C44.0815 256.826 43.4466 259.42 42.7507 261.989C42.0181 264.669 41.2855 267.36 40.553 270.039C39.7593 272.962 38.9657 275.872 38.3308 278.831C38.0256 280.268 37.7569 281.717 37.5371 283.179C37.4395 283.86 37.3662 284.555 37.2929 285.249C37.2563 285.626 37.2319 285.992 37.2075 286.369C37.1953 286.515 37.1953 286.661 37.1953 286.807C37.2319 286.466 37.293 286.126 37.3296 285.809C37.4273 285.042 37.5372 284.275 37.6593 283.507C37.8669 282.204 38.1232 280.914 38.4041 279.635C38.9779 277.053 39.6861 274.52 40.3942 271.975C41.8472 266.751 43.2268 261.502 44.7652 256.315C45.4612 253.977 46.2915 251.675 47.5613 249.568C48.5747 247.9 49.7956 246.378 51.1265 244.953C53.8492 242.055 56.9749 239.583 59.9784 236.977C63.2506 234.127 66.6693 230.985 68.5984 227.027C68.806 226.577 68.1833 226.199 67.9391 226.638Z" fill="#1C1C1B"/>
<path d="M37.1588 287.404C37.1832 287.21 37.1832 287.003 37.1954 286.796C37.1588 287.003 37.1466 287.21 37.1588 287.404Z" fill="#1C1C1B"/>
<path d="M37.171 287.769C37.1588 287.648 37.1588 287.526 37.1588 287.404C37.1466 287.526 37.1222 287.648 37.0977 287.757C37.0733 287.818 37.171 287.818 37.171 287.769Z" fill="#1C1C1B"/>
<path d="M35.6082 235.052C35.9623 230.388 36.7926 225.749 38.4042 221.34C38.4531 221.206 38.2455 221.145 38.1967 221.279C35.2298 229.073 34.7902 237.463 34.8879 245.72C34.9367 249.97 35.1198 254.22 35.1564 258.47C35.2053 262.878 35.0466 267.274 34.6681 271.658C34.2652 276.298 33.6791 280.913 33.0686 285.528C27.9772 274.776 23.3253 263.816 19.1985 252.661C17.9897 249.385 16.8176 246.085 15.6943 242.773C15.5478 242.347 14.8763 242.529 15.0106 242.956C18.9665 254.695 23.4718 266.251 28.5266 277.564C29.9552 280.755 31.4203 283.921 32.9465 287.075C33.1297 287.465 33.6303 287.209 33.6669 286.88C34.8024 278.003 35.8646 269.113 35.8036 260.15C35.7425 251.809 34.9733 243.43 35.6082 235.052Z" fill="#1C1C1B"/>
<path d="M18.8684 273.29C20.8219 282.265 22.1527 291.666 20.7486 300.702C23.8987 300.714 39.7834 300.8 44.8993 300.751C44.8382 299.959 44.7772 299.18 44.7405 298.389C44.4475 292.787 44.8138 287.149 46.4865 281.766C46.8894 280.463 47.7319 276.225 48.2691 274.959L48.1714 273.29H18.8684Z" fill="#D97356"/>
<path d="M49.3925 268.309L17.9771 268.358C17.7085 268.358 17.4522 268.383 17.1958 268.431V275.677C17.4522 275.726 17.7085 275.75 17.9771 275.75L48.7332 275.689L49.3925 268.309Z" fill="#1A0400"/>
<path d="M43.6911 279.306C43.2516 279.817 42.9097 280.463 42.6045 281.059C42.2992 281.656 42.0428 282.289 41.7986 282.922C41.3102 284.225 41.0172 285.541 40.8829 286.917C40.834 287.489 41.7986 287.635 41.9085 287.051C42.1405 285.784 42.4457 284.505 42.8608 283.276C43.0684 282.667 43.3126 282.07 43.5812 281.473C43.8376 280.889 44.1673 280.316 44.4115 279.72C44.5702 279.33 43.9597 278.989 43.6911 279.306Z" fill="#1C1C1B"/>
<path d="M41.4684 290.546C41.4806 290.132 40.8334 290.132 40.8212 290.546C40.748 292.64 40.3451 294.71 40.4062 296.817C40.4306 297.487 41.3585 297.45 41.4195 296.817C41.6515 294.723 41.3951 292.64 41.4684 290.546Z" fill="#1C1C1B"/>
<path d="M39.4296 298.912C37.2563 298.559 35.022 298.449 32.8365 298.717C32.1039 298.802 32.2382 299.813 32.9708 299.716C35.0831 299.435 37.2198 299.375 39.332 299.618C39.7349 299.667 39.8326 298.973 39.4296 298.912Z" fill="#1C1C1B"/>
<path d="M295.099 207.275C292.901 208.249 290.142 210.063 289.812 212.657C289.714 213.424 288.518 213.765 288.335 212.852C288.054 211.464 287.431 210.197 286.405 209.199C285.343 208.151 283.915 207.701 282.767 206.763C282.413 206.471 282.608 205.801 283.048 205.716C285.294 205.277 287.712 204.048 288.713 201.953C288.603 201.575 288.518 201.174 288.481 200.76C288.432 200.199 288.945 199.737 289.458 199.651C290.032 199.566 290.508 199.932 290.691 200.455C291.179 201.88 291.875 203.134 292.742 204.303C293.475 204.937 294.305 205.485 295.086 206.02C295.489 206.313 295.636 207.043 295.099 207.275Z" fill="#D9E0FC"/>
<path d="M303.475 221.547C302.95 221.036 302.388 220.549 301.838 220.074C302.132 219.927 302.437 219.769 302.73 219.611C303.12 219.392 303.279 218.831 303.035 218.454C302.766 218.028 302.315 217.967 301.875 218.15C301.741 218.21 301.607 218.271 301.484 218.332C301.643 217.358 301.814 216.372 302.034 215.397C302.205 214.63 301.045 214.301 300.849 215.069C300.569 216.189 300.251 217.309 299.946 218.417C299.421 217.967 298.896 217.504 298.371 217.054C298.09 216.81 297.675 216.786 297.406 217.054C297.138 217.321 297.15 217.748 297.406 218.016C297.907 218.551 298.408 219.087 298.896 219.635C298.652 219.769 298.395 219.903 298.163 220.061C297.773 220.305 297.345 220.5 296.93 220.707C296.564 220.889 296.454 221.413 296.649 221.754C296.869 222.132 297.321 222.217 297.699 222.022C298.078 221.827 298.469 221.608 298.859 221.462C298.981 221.413 299.091 221.364 299.201 221.316C299.14 221.559 299.079 221.803 299.03 222.034C298.835 222.85 298.542 223.69 298.505 224.531C298.456 225.712 300.202 225.895 300.532 224.799C300.752 224.044 300.752 223.215 300.849 222.436C300.874 222.241 300.911 222.046 300.935 221.839C301.289 222.217 301.655 222.594 302.034 222.972C302.412 223.337 303.096 223.386 303.475 222.972C303.841 222.582 303.877 221.937 303.475 221.547Z" fill="#D9E0FC"/>
<path d="M27.7083 54.5796C26.1089 53.8733 24.9246 52.6068 24.3019 50.9872C24.0821 50.4026 23.2885 50.3661 23.0809 50.9872C22.8123 51.7787 22.3483 52.485 21.8233 53.1182C21.7989 53.1548 21.7745 53.1913 21.75 53.2157C21.2739 53.6175 20.7244 53.9585 20.1262 54.1533C19.7354 54.2751 19.711 54.8596 20.1262 54.9692C20.9442 55.1884 21.6523 55.5172 22.2506 56.1261C22.8245 56.7228 23.1908 57.4535 23.3251 58.2572C23.4349 58.9148 24.4362 58.6347 24.3385 57.9771C24.2286 57.283 24.9612 56.7715 25.4862 56.4914C26.2065 56.1018 26.9758 55.773 27.7328 55.432C28.038 55.298 28.038 54.7257 27.7083 54.5796Z" fill="#D9E0FC"/>
<path d="M19.4787 37.6405C19.8572 37.7988 20.3456 38.1276 20.1746 38.493C20.077 38.7 19.8328 38.773 19.613 38.8339C17.3176 39.3941 13.0809 40.2709 13.2274 43.4614C13.2518 44.1434 12.2262 44.253 12.0552 43.6198C11.457 41.2816 10.0284 39.1627 7.85512 38.0424C7.36673 37.7867 7.63537 37.1169 8.11155 37.0804C9.33251 36.9951 10.4924 36.4958 11.4203 35.7165C12.5314 34.791 12.8122 34.2673 13.093 32.9034C13.2029 32.3554 13.5204 31.7831 14.0698 31.6491C14.1675 31.6248 14.2896 31.6126 14.3873 31.6613C14.5827 31.7344 14.6681 31.9658 14.7291 32.1606C15.4861 34.3526 16.9513 36.3741 19.0025 37.4335C19.1734 37.4944 19.32 37.5675 19.4787 37.6405Z" fill="#D9E0FC"/>
<path d="M267.957 70.983C267.383 70.6299 266.394 70.5325 265.991 69.9723C265.27 68.9494 267.029 68.9859 267.517 68.8519C268.421 68.6084 269.153 67.9143 269.641 67.1105C270.13 66.3068 270.398 65.3935 270.655 64.4923C271.265 64.8211 271.387 65.6005 271.644 66.2459C272.083 67.3419 273.085 68.1456 274.22 68.4379C274.623 68.5353 276.809 69.0102 275.295 69.7896C274.281 70.3011 273.133 70.7395 272.303 71.5432C271.778 72.0547 270.997 74.5024 270.398 74.4049C270.13 74.3684 269.935 74.1492 269.812 73.9057C269.703 73.6621 269.654 73.3942 269.58 73.1385C269.446 72.6757 269.226 72.2373 268.921 71.8598C268.665 71.5189 268.335 71.2266 267.957 70.983Z" fill="#D9E0FC"/>
<path d="M11.0057 75.9637C8.47836 76.7796 7.07428 79.2395 6.45159 81.6507C6.26844 82.3326 5.15734 82.1987 5.20618 81.4802C5.27944 80.2016 4.80327 78.9838 3.98522 78.0096C3.00845 76.8405 1.82412 76.4874 0.468849 75.8785C0.273495 75.7932 0.041507 75.6715 0.00487763 75.4523C-0.0317508 75.2453 0.139184 75.0504 0.310118 74.9286C0.883969 74.539 1.62877 74.5755 2.31251 74.4415C3.9486 74.1371 5.32827 72.761 5.65793 71.1414C5.73119 70.8004 5.75562 70.4351 5.90214 70.1185C6.04865 69.8019 6.37831 69.5339 6.73238 69.5827C7.15972 69.6435 7.37945 70.1063 7.52596 70.5082C7.81899 71.3241 8.01439 72.0913 8.63708 72.7123C9.38187 73.4552 10.2853 74.0397 11.1888 74.5511C11.7871 74.8921 11.6162 75.7689 11.0057 75.9637Z" fill="#D9E0FC"/>
</svg>
