<svg width="21" height="21" viewBox="0 0 21 21" fill="none" xmlns="http://www.w3.org/2000/svg">
<path d="M14.348 6.65168C14.2516 6.55446 14.1368 6.4773 14.0104 6.42464C13.884 6.37198 13.7485 6.34487 13.6115 6.34487C13.4746 6.34487 13.339 6.37198 13.2126 6.42464C13.0862 6.4773 12.9715 6.55446 12.8751 6.65168L10.4998 9.03732L8.12456 6.65168C7.92924 6.45636 7.66434 6.34664 7.38812 6.34664C7.1119 6.34664 6.84699 6.45636 6.65168 6.65168C6.45636 6.84699 6.34664 7.1119 6.34664 7.38812C6.34664 7.66434 6.45636 7.92924 6.65168 8.12456L9.03732 10.4998L6.65168 12.8751C6.55446 12.9715 6.4773 13.0862 6.42464 13.2126C6.37198 13.339 6.34487 13.4746 6.34487 13.6115C6.34487 13.7485 6.37198 13.884 6.42464 14.0104C6.4773 14.1368 6.55446 14.2516 6.65168 14.348C6.7481 14.4452 6.86282 14.5224 6.98922 14.575C7.11562 14.6277 7.25119 14.6548 7.38812 14.6548C7.52505 14.6548 7.66062 14.6277 7.78701 14.575C7.91341 14.5224 8.02813 14.4452 8.12456 14.348L10.4998 11.9623L12.8751 14.348C12.9715 14.4452 13.0862 14.5224 13.2126 14.575C13.339 14.6277 13.4746 14.6548 13.6115 14.6548C13.7485 14.6548 13.884 14.6277 14.0104 14.575C14.1368 14.5224 14.2516 14.4452 14.348 14.348C14.4452 14.2516 14.5224 14.1368 14.575 14.0104C14.6277 13.884 14.6548 13.7485 14.6548 13.6115C14.6548 13.4746 14.6277 13.339 14.575 13.2126C14.5224 13.0862 14.4452 12.9715 14.348 12.8751L11.9623 10.4998L14.348 8.12456C14.4452 8.02813 14.5224 7.91341 14.575 7.78701C14.6277 7.66062 14.6548 7.52505 14.6548 7.38812C14.6548 7.25119 14.6277 7.11562 14.575 6.98922C14.5224 6.86282 14.4452 6.7481 14.348 6.65168ZM17.8331 3.16656C16.8763 2.1759 15.7317 1.38571 14.4663 0.8421C13.2008 0.298494 11.8397 0.0123594 10.4625 0.000391627C9.08526 -0.0115762 7.71944 0.250862 6.44471 0.772395C5.16998 1.29393 4.01189 2.06411 3.038 3.038C2.06411 4.01189 1.29393 5.16998 0.772395 6.44471C0.250862 7.71944 -0.0115762 9.08526 0.000391627 10.4625C0.0123594 11.8397 0.298494 13.2008 0.8421 14.4663C1.38571 15.7317 2.1759 16.8763 3.16656 17.8331C4.12338 18.8238 5.26792 19.614 6.53339 20.1576C7.79886 20.7012 9.15992 20.9873 10.5372 20.9993C11.9144 21.0112 13.2802 20.7488 14.5549 20.2273C15.8297 19.7057 16.9878 18.9356 17.9617 17.9617C18.9356 16.9878 19.7057 15.8297 20.2273 14.5549C20.7488 13.2802 21.0112 11.9144 20.9993 10.5372C20.9873 9.15992 20.7012 7.79886 20.1576 6.53339C19.614 5.26792 18.8238 4.12338 17.8331 3.16656ZM16.3706 16.3706C15.0139 17.7288 13.2283 18.5745 11.318 18.7638C9.40767 18.9531 7.49081 18.4742 5.894 17.4086C4.29719 16.3431 3.11922 14.7569 2.56079 12.9202C2.00235 11.0835 2.09801 9.11008 2.83145 7.33603C3.56488 5.56199 4.89074 4.09712 6.58311 3.191C8.27548 2.28489 10.2297 1.99358 12.1127 2.36672C13.9958 2.73986 15.6912 3.75436 16.9102 5.23737C18.1292 6.72038 18.7962 8.58015 18.7977 10.4998C18.8014 11.5903 18.5888 12.6706 18.1722 13.6783C17.7556 14.686 17.1432 15.6011 16.3706 16.3706Z" fill="#D97356"/>
</svg>
