<svg width="413" height="194" viewBox="0 0 413 194" fill="none" xmlns="http://www.w3.org/2000/svg">
<path d="M348.743 193.012C348.743 193.012 393.75 201.275 408.076 170.014C426.664 129.457 388.476 98.7065 359.189 104.436C295.369 116.92 310.737 -20.8089 208.316 7.30027C179.517 15.2036 101.704 -31.7489 80.0022 43.5366C74.841 61.4388 56.5582 63.41 30.0164 74.7702C-21.9281 97.001 1.82229 193.388 38.9392 193.766C76.056 194.144 348.743 193.012 348.743 193.012Z" fill="#EDDCFF"/>
<path d="M253.514 178.996C244.235 172.042 235.326 181.124 222.334 175.187C209.342 169.249 236.068 139.935 225.304 131.029C214.54 122.123 196.724 141.047 196.724 141.047C196.724 141.047 227.903 102.084 216.025 97.2243C204.147 92.3643 129.024 79.9399 129.024 79.9399L115.451 158.215C112.675 154.625 106.793 149.995 101.698 155.837C94.9215 163.608 117.643 180.345 114.055 183.733C110.468 187.12 101.897 172.773 94.6466 178.384C87.3958 183.996 96.6956 193.621 96.6956 193.621L117.044 193.904C117.044 193.904 117.047 193.652 117.054 193.193C133.954 193.193 260.575 193.193 260.575 193.193C260.575 193.193 262.794 185.949 253.514 178.996Z" fill="#A8D29F"/>
<path d="M156.451 75.6698L147.106 186.762C147.106 186.762 146.126 193.497 151.137 193.508C159.375 193.528 192.141 193.508 192.141 193.508C192.141 193.508 185.94 192.107 186.016 188.952C186.105 185.235 196.939 74.6187 196.939 74.6187L156.451 75.6698Z" fill="#E04E3B"/>
<path d="M194.799 191.492C193.178 191.498 161.882 191.596 153.86 191.492C150.364 191.449 149.75 188.385 149.722 186.401C149.707 185.45 149.828 184.747 149.828 184.747L150.071 181.86L150.69 174.501L151.238 168L151.941 159.645L152.533 152.592L159.173 73.6537L199.661 72.6039C199.661 72.6039 195.099 118.897 191.87 152.594C191.51 156.348 191.167 159.949 190.85 163.309C190.747 164.382 190.648 165.43 190.553 166.451C190.253 169.64 189.979 172.567 189.742 175.152C189.617 176.514 189.501 177.78 189.397 178.94C188.984 183.484 188.743 186.386 188.741 186.937C188.739 187.259 188.767 187.558 188.819 187.836C189.483 191.377 194.191 191.492 194.799 191.492Z" fill="#FF6652"/>
<path d="M252.507 15.2182H58.1228L80.8873 106.634L84.0047 119.152L94.6073 161.732H291.586L252.507 15.2182Z" fill="#FF6652"/>
<path d="M58.1228 15.2182L54.9687 16.2693L90.4123 164.912L94.6073 161.732L58.1228 15.2182Z" fill="#FF6652"/>
<path d="M90.4123 164.912H286.179L291.585 161.731H94.6073L90.4123 164.912Z" fill="#E04E3B"/>
<path d="M159.16 193.552H201.547V191.538H159.16V193.552Z" fill="#FF6652"/>
<path d="M190.772 164.911L190.553 166.45L150.69 174.501L151.238 168L151.498 164.911H190.772Z" fill="#E04E3B"/>
<path opacity="0.4" d="M194.799 191.493C193.178 191.498 161.882 191.596 153.86 191.493C150.364 191.45 149.75 188.386 149.722 186.401L189.395 178.939C188.983 183.484 188.742 186.386 188.739 186.937C188.738 187.259 188.766 187.557 188.818 187.836C189.483 191.378 194.191 191.493 194.799 191.493Z" fill="#E04E3B"/>
<path opacity="0.4" d="M178.577 132.949L94.6072 161.732L87.4363 132.932L178.577 132.949Z" fill="#E04E3B"/>
<path d="M252.507 15.2182H58.1228L87.4193 132.931L284.046 132.969L252.507 15.2182Z" fill="#8434DC"/>
<path d="M198.318 147.855C197.757 144.967 194.96 142.625 192.072 142.625C189.183 142.625 187.297 144.966 187.858 147.855C188.42 150.742 191.217 153.084 194.105 153.084C196.993 153.082 198.88 150.742 198.318 147.855Z" fill="#E04E3B"/>
<path d="M274.879 127.865H92.8765L72.2644 45.7788L70.6841 39.4842L69.3356 34.115L66.175 21.5244H245.553L249.026 34.115L250.506 39.4842L252.241 45.7788L274.879 127.865Z" fill="#E9F3FE"/>
<path d="M245.553 21.5244H66.175L69.3356 34.115H249.026L245.553 21.5244Z" fill="#9C4DF4"/>
<path d="M130.327 54.09H148.473L150.827 63.1831H132.681L130.327 54.09Z" fill="#8434DC"/>
<path d="M96.6092 63.1828H114.753L117 71.861H98.903L96.6092 63.1828Z" fill="#8434DC"/>
<path d="M184.945 54.09H203.09L205.445 63.1831H187.299L184.945 54.09Z" fill="#8434DC"/>
<path d="M189.547 72.4828H207.693L209.939 81.1609H191.841L189.547 72.4828Z" fill="#8434DC"/>
<path d="M176.034 90.4613H212.422L214.678 99.5544H178.388L176.034 90.4613Z" fill="#8434DC"/>
<path d="M254.807 53.8252H74.0817V54.354H254.807V53.8252Z" fill="#9C4DF4"/>
<path d="M257.263 62.918H76.6766V63.4468H257.263V62.918Z" fill="#9C4DF4"/>
<path d="M259.72 72.0108H78.4691V72.5396H259.72V72.0108Z" fill="#9C4DF4"/>
<path d="M262.175 81.1046H81.1387V81.6334H262.175V81.1046Z" fill="#9C4DF4"/>
<path d="M264.629 90.1975H83.4378V90.7263H264.629V90.1975Z" fill="#9C4DF4"/>
<path d="M267.086 99.2913H85.602V99.8201H267.086V99.2913Z" fill="#9C4DF4"/>
<path d="M269.542 108.382H87.833V108.911H269.542V108.382Z" fill="#9C4DF4"/>
<path d="M271.998 117.475H90.2775V118.004H271.998V117.475Z" fill="#9C4DF4"/>
<path d="M74.7769 25.6409C73.9075 25.6409 73.3785 26.3451 73.5946 27.2142C73.8119 28.0833 74.6918 28.7875 75.5611 28.7875C76.4305 28.7875 76.9594 28.0833 76.7434 27.2142C76.5274 26.3451 75.6475 25.6409 74.7769 25.6409Z" fill="#E9F3FE"/>
<path d="M80.0088 25.6409C79.1395 25.6409 78.6105 26.3451 78.8265 27.2142C79.0439 28.0833 79.9237 28.7875 80.7931 28.7875C81.6625 28.7875 82.1914 28.0833 81.9754 27.2142C81.758 26.3451 80.8782 25.6409 80.0088 25.6409Z" fill="#E9F3FE"/>
<path d="M87.6078 27.2142C87.3905 26.3451 86.5106 25.6409 85.6413 25.6409C84.7719 25.6409 84.243 26.3451 84.459 27.2142C84.6763 28.0833 85.5562 28.7875 86.4255 28.7875C87.2949 28.7875 87.8239 28.0833 87.6078 27.2142Z" fill="#E9F3FE"/>
<path d="M258.042 127.932L258.553 127.799L237.319 45.779H252.241L250.506 39.4843H235.689L235.672 39.4189L235.417 39.4843H217.544L217.527 39.4189L217.271 39.4843H199.4L199.383 39.4189L199.126 39.4843H181.254L181.237 39.4189L180.982 39.4843H163.109L163.092 39.4189L162.837 39.4843H144.965L144.947 39.4189L144.691 39.4843H126.82L126.803 39.4189L126.546 39.4843H108.674L108.657 39.4189L108.402 39.4843H90.5289L90.5118 39.4189L90.2565 39.4843H70.6841L72.2644 45.779H91.613L112.882 127.932L113.393 127.799L92.1589 45.779H109.758L131.026 127.932L131.538 127.799L110.304 45.779H127.904L149.172 127.932L149.684 127.799L128.45 45.779H146.048L167.317 127.932L167.828 127.799L146.594 45.779H164.193L185.462 127.932L185.973 127.799L164.739 45.779H182.338L203.606 127.932L204.118 127.799L182.884 45.779H200.484L221.752 127.932L222.264 127.799L201.028 45.779H218.628L239.897 127.932L240.408 127.799L219.174 45.779H236.773L258.042 127.932Z" fill="#9C4DF4"/>
<path d="M383.002 92.9539H345.025V130.922H383.002V92.9539Z" fill="#E04E3B"/>
<path d="M394.713 92.9539H356.735V130.922H394.713V92.9539Z" fill="#EE9849"/>
<path d="M376.127 118.273C374.595 118.28 373.357 119.526 373.364 121.057C373.371 122.589 374.617 123.824 376.149 123.819C377.681 123.813 378.917 122.567 378.911 121.035C378.906 119.504 377.658 118.267 376.127 118.273Z" fill="#EBF2F9"/>
<path d="M376.15 105.177C377.682 105.171 378.919 103.925 378.913 102.393C378.906 100.862 377.66 99.6261 376.128 99.6313C374.596 99.6379 373.359 100.884 373.365 102.415C373.372 103.947 374.618 105.184 376.15 105.177Z" fill="#EBF2F9"/>
<path d="M387.978 109.116L364.208 109.215L364.231 114.761L388.001 114.662L387.978 109.116Z" fill="#EBF2F9"/>
<path d="M52.011 119.259H19.546V151.715H52.011V119.259Z" fill="#4A75CB"/>
<path d="M62.0218 119.259H29.5568V151.715H62.0218V119.259Z" fill="#699DEE"/>
<path d="M56.2714 133.116H35.9513V137.857H56.2714V133.116Z" fill="#EBF2F9"/>
<path d="M326.305 193.789H389.191V130.92L326.305 130.92V193.789Z" fill="#E04E3B"/>
<path d="M369.802 130.92H306.915V193.789H369.802V130.92Z" fill="#FF6652"/>
<path d="M357.413 157.763H342.326V142.68H333.14V157.763H318.055V166.945H333.14V182.028H342.326V166.945H357.413V157.763Z" fill="#EBF2F9"/>
<path d="M369.802 130.92L389.192 140.36V130.92H369.802Z" fill="#C95C12"/>
<path d="M405.819 193.906H7.16152C6.96644 193.906 6.8054 193.746 6.8054 193.55C6.8054 193.355 6.96513 193.194 7.16152 193.194H405.819C406.014 193.194 406.175 193.354 406.175 193.55C406.173 193.746 406.014 193.906 405.819 193.906Z" fill="#283250"/>
<path d="M64.6521 151.715H23.161V193.195H64.6521V151.715Z" fill="#E04E3B"/>
<path d="M77.4452 151.715H35.954V193.195H77.4452V151.715Z" fill="#FF6652"/>
<path d="M68.5486 179.306L61.396 172.386L68.3195 165.234L63.9635 161.02L57.0413 168.171L49.8887 161.251L45.6741 165.604L52.8267 172.526L45.9046 179.676L50.2592 183.89L57.1814 176.739L64.334 183.659L68.5486 179.306Z" fill="#EBF2F9"/>
<path d="M35.954 151.715L23.161 159.469V151.715H35.954Z" fill="#C95C12"/>
<path d="M246.519 84.8059C246.519 84.8059 256.191 94.6529 256.656 98.42C257.121 102.187 252.051 108.08 252.051 108.08L246.519 84.8059Z" fill="#E58638"/>
<path d="M242.374 188.418C242.374 188.418 242.169 191.736 241.573 193.164H229.479C229.683 192.689 230.159 192.079 231.261 191.887C233.156 191.556 236.325 190.226 237.472 187.723C238.68 185.091 242.374 188.418 242.374 188.418Z" fill="#163560"/>
<path d="M256.805 188.418C256.805 188.418 256.6 191.736 256.005 193.164H243.911C244.114 192.689 244.59 192.079 245.693 191.887C247.587 191.556 250.758 190.226 251.905 187.723C253.112 185.091 256.805 188.418 256.805 188.418Z" fill="#163560"/>
<path d="M235.198 131.345C235.198 131.345 236.892 142.181 243.215 161.415C249.537 180.65 250.398 188.979 250.398 188.979L257.18 188.789C257.18 188.789 257.237 167.768 254.324 158.096C251.411 148.424 253.696 123.226 253.696 123.226L235.198 131.345Z" fill="#163560"/>
<path d="M231.897 123.818C231.897 123.818 231.658 140.146 234.483 160.195C237.309 180.243 236.352 188.753 236.352 188.753L243.119 188.978C243.119 188.978 247.164 168.923 246.005 158.888C244.845 148.854 251.543 124.456 251.543 124.456L231.897 123.818Z" fill="#1C468A"/>
<path d="M244.999 85.6084L241.394 87.9724L236.183 87.0011C236.255 86.581 236.599 84.8375 236.912 83.2589C236.93 83.166 236.95 83.0731 236.967 82.9814C237.235 81.6385 237.467 80.484 237.467 80.484L242.335 78.3374L244.15 77.5363C244.145 77.5651 244.01 79.0272 243.99 79.2405C243.65 83.0325 244.999 85.6084 244.999 85.6084Z" fill="#FFB27D"/>
<path d="M254.143 125.834C253.097 130.608 235.679 131.173 231.188 126.841C230.677 126.347 230.652 124.049 230.845 120.951C231.222 114.898 232.432 105.793 232.479 101.141C232.502 98.8953 232.81 96.5968 233.222 94.5104C234.097 90.064 235.431 86.5744 235.431 86.5744C235.431 86.5744 243.939 83.8243 245.531 84.2929C253.201 86.5442 255.191 121.061 254.143 125.834Z" fill="#EE9849"/>
<path d="M230.846 120.951C231.223 114.899 232.433 105.794 232.48 101.142C232.504 98.8956 232.811 96.5971 233.224 94.5107L238.342 93.6075C238.34 93.6075 243.344 114.04 230.846 120.951Z" fill="#E58638"/>
<path d="M233.616 112.513C233.616 112.513 233.965 113.347 233.233 113.906C232.501 114.466 232.026 115.372 232.193 116.036C232.361 116.698 233.969 117.779 234.525 117.605C235.082 117.431 236.215 116.558 236.094 116.208C235.972 115.859 236.857 113.14 235.498 112.094C234.14 111.049 233.616 112.513 233.616 112.513Z" fill="#FFB27D"/>
<path d="M239.339 85.3501C239.339 85.3501 234.348 86.2834 230.371 92.1434C226.393 98.0022 223.777 102.36 224.51 104.471C225.244 106.582 231.921 113.907 233.072 113.907C234.223 113.907 236.081 113.071 236.185 111.187C236.185 111.187 231.484 104.142 232.409 103.087C232.805 102.636 238.513 98.0035 239.329 100.096C240.677 103.557 239.339 85.3501 239.339 85.3501Z" fill="#EE9849"/>
<path d="M243.625 79.3074C242.556 81.1176 238.573 82.6831 236.912 83.2577C236.93 83.1648 236.95 83.0718 236.967 82.9802C237.235 81.6373 237.467 80.4828 237.467 80.4828L242.335 78.3362C243.411 78.3218 244.066 78.5626 243.625 79.3074Z" fill="#FCA56B"/>
<path d="M235.633 80.1885C235.633 80.1885 243.473 82.6336 244.921 77.7291C246.369 72.8245 248.356 69.8363 243.411 68.0679C238.466 66.2995 236.937 67.882 236.056 69.4017C235.175 70.9214 233.631 79.4254 235.633 80.1885Z" fill="#FFB27D"/>
<path d="M236.363 68.929C236.363 68.929 236.864 74.6373 238.044 74.3886C239.225 74.1399 240.296 73.9566 240.124 75.6779C239.951 77.3978 238.313 79.3847 241.953 79.6897C245.591 79.9947 250.822 70.6123 249.823 68.8361C246.937 63.7103 232.195 62.6763 236.363 68.929Z" fill="#163560"/>
<path d="M237.517 84.4163C237.618 84.3731 243.792 82.5524 244.464 82.7736C245.134 82.9948 245.532 84.2919 245.532 84.2919L235.432 86.5747C235.432 86.5747 236.227 84.9595 237.517 84.4163Z" fill="#E58638"/>
<path d="M42.3722 98.8649C42.3722 98.8649 39.099 95.0467 42.1705 92.6226C42.1705 92.6226 44.4133 91.2653 46.2437 91.3752C46.2437 91.3752 43.6513 95.7208 44.4906 96.1528C45.3298 96.5847 47.0293 91.1029 47.0293 91.1029C47.0293 91.1029 52.1342 90.6082 53.7773 91.3975C53.7773 91.3975 49.4135 94.9682 50.3326 95.1802C51.2517 95.3923 55.9665 91.8883 55.9665 91.8883C55.9665 91.8883 60.7179 92.6972 60.4652 95.5939C60.2125 98.4918 58.5746 99.3858 57.8545 99.3099C57.1343 99.2327 52.925 97.6266 52.8334 98.2156C52.7417 98.8047 55.2752 100.731 57.0492 100.822C57.0492 100.822 53.6988 104.515 51.473 103.449C49.2472 102.383 49.0561 100.693 47.6682 100.06C46.2804 99.4264 45.0955 99.4277 45.6689 100.074C46.2424 100.721 48.7536 101.349 49.547 102.752C50.3405 104.156 51.0527 105.102 48.7497 104.756C46.4467 104.409 42.7021 102.725 42.5371 100.796C42.3722 98.8662 42.3722 98.8649 42.3722 98.8649Z" fill="#82B378"/>
<path d="M58.128 95.6721C58.128 95.6721 45.2224 95.1747 42.3721 98.8645C42.3721 98.8645 41.7424 100.752 39.802 102.471L39.4996 103.294C39.4996 103.294 41.7358 100.937 42.5358 100.794C42.5371 100.794 41.2854 96.2231 58.128 95.6721Z" fill="#82B378"/>
<path d="M39.802 102.471C39.802 102.471 37.0316 104.52 36.8391 108.178L37.3419 108.223C37.3419 108.223 38.227 104.439 39.8256 102.959C41.4256 101.48 39.802 102.471 39.802 102.471Z" fill="#82B378"/>
<path d="M30.9277 94.0645C30.9277 94.0645 36.1347 91.1495 33.7047 87.194C33.7047 87.194 31.7604 84.7646 29.6786 84.1402C29.6786 84.1402 30.7889 90.0396 29.6786 90.1783C28.5683 90.3171 28.9153 83.5159 28.9153 83.5159C28.9153 83.5159 23.4307 80.8784 21.2782 81.0865C21.2782 81.0865 24.6798 86.8471 23.5695 86.7084C22.4592 86.5696 18.64 80.7397 18.64 80.7397C18.64 80.7397 13.0167 79.6991 12.1146 83.0303C11.2125 86.3615 12.6697 88.0278 13.5037 88.2359C14.3364 88.444 19.6822 88.3746 19.5434 89.0683C19.4047 89.7621 15.795 90.8734 13.7813 90.2477C13.7813 90.2477 16.0031 95.7308 18.9189 95.4533C21.8347 95.1758 22.7368 93.3708 24.5423 93.232C26.3478 93.0933 27.6662 93.5789 26.7641 94.0645C25.862 94.5501 22.8075 94.2242 21.3489 95.4624C19.8904 96.702 18.7107 97.4651 21.4183 98.0201C24.1259 98.5751 28.986 98.2282 29.9575 96.1457C30.9277 94.0645 30.9277 94.0645 30.9277 94.0645Z" fill="#A8D29F"/>
<path d="M14.6833 84.0711C14.6833 84.0711 29.2622 88.7911 30.9289 94.0648C30.9289 94.0648 30.8595 96.4247 32.3168 99.1316V100.172C32.3168 100.172 30.7888 96.6329 29.9561 96.1472C29.9561 96.1472 33.2189 91.566 14.6833 84.0711Z" fill="#82B378"/>
<path d="M32.3168 99.1314C32.3168 99.1314 34.5648 102.545 33.283 106.7L32.7043 106.544C32.7043 106.544 33.266 101.968 32.0889 99.6654C30.9132 97.3644 32.3168 99.1314 32.3168 99.1314Z" fill="#82B378"/>
<path d="M39.2115 90.0442C39.2115 90.0442 32.3482 86.2012 35.5507 80.9865C35.5507 80.9865 38.113 77.7848 40.8586 76.9615C40.8586 76.9615 39.3948 84.7378 40.8586 84.9211C42.3223 85.1043 41.8654 76.1382 41.8654 76.1382C41.8654 76.1382 49.0953 72.6617 51.9312 72.9366C51.9312 72.9366 47.4469 80.5296 48.9106 80.3464C50.3744 80.1631 55.4086 72.4784 55.4086 72.4784C55.4086 72.4784 62.8205 71.1067 64.0106 75.4981C65.2007 79.8896 63.2787 82.0846 62.1802 82.3595C61.0817 82.6344 54.0352 82.5428 54.2185 83.4577C54.4018 84.3726 59.1597 85.836 61.8136 85.0127C61.8136 85.0127 58.8848 92.2406 55.042 91.8741C51.198 91.5076 50.0091 89.1293 47.6302 88.946C45.2512 88.7628 43.5125 89.4041 44.7013 90.0442C45.8914 90.6843 49.9175 90.2536 51.8395 91.8872C53.7615 93.5207 55.317 94.5273 51.7479 95.259C48.1788 95.9907 41.7737 95.5338 40.492 92.789C39.2115 90.0442 39.2115 90.0442 39.2115 90.0442Z" fill="#A8D29F"/>
<path d="M60.6249 76.8699C60.6249 76.8699 41.4072 83.0912 39.2115 90.0442C39.2115 90.0442 39.3032 93.1543 37.3812 96.7224V98.0941C37.3812 98.0941 39.3948 93.4278 40.492 92.7878C40.4933 92.7891 36.1923 86.7497 60.6249 76.8699Z" fill="#82B378"/>
<path d="M37.3811 96.7223C37.3811 96.7223 34.4169 101.221 36.1072 106.699L36.8692 106.495C36.8692 106.495 36.1295 100.462 37.6797 97.4278C39.2312 94.3937 37.3811 96.7223 37.3811 96.7223Z" fill="#82B378"/>
<path d="M38.9798 118.575C46.4048 118.575 52.4235 112.558 52.4235 105.135H25.5361C25.5361 112.558 31.5549 118.575 38.9798 118.575Z" fill="#FF6652"/>
<path d="M42.2883 118.473C41.7411 118.541 41.1846 118.577 40.6177 118.577C33.1927 118.577 27.174 112.558 27.174 105.135H30.5139C30.5152 111.993 35.6516 117.65 42.2883 118.473Z" fill="#FFB973"/>
<path d="M50.9518 117.601H27.0089C26.0925 117.601 25.3501 118.343 25.3501 119.259H52.6107C52.6107 118.343 51.8683 117.601 50.9518 117.601Z" fill="#FF6652"/>
<path d="M52.7298 105.135H25.0935V105.548H52.7298V105.135Z" fill="#E04E3B"/>
</svg>
