<svg width="30" height="30" viewBox="0 0 30 30" fill="none" xmlns="http://www.w3.org/2000/svg">
<g clip-path="url(#clip0_28_1867)">
<path d="M14.8516 5.55877C13.4654 6.53372 11.8943 7.63874 11.0525 9.46693C9.59031 12.6565 14.0444 16.1356 14.2348 16.2822C14.279 16.3162 14.332 16.3332 14.3848 16.3332C14.4408 16.3332 14.497 16.3141 14.5426 16.2758C14.631 16.2019 14.6561 16.0763 14.603 15.974C14.5869 15.9429 12.9881 12.8374 13.0475 10.6096C13.0685 9.83361 14.1544 8.95336 15.304 8.02142C16.357 7.16782 17.5505 6.20038 18.2489 5.06863C19.7819 2.57745 18.078 0.127873 18.0606 0.103381C17.9929 0.0083413 17.868 -0.0260534 17.7612 0.0207632C17.6545 0.0678728 17.5954 0.183244 17.6197 0.297327C17.6232 0.313557 17.9545 1.93345 17.0325 3.60238C16.6527 4.29203 15.8181 4.87902 14.8516 5.55877Z" fill="#DB380E"/>
<path d="M20.6918 6.65767C20.7896 6.58402 20.8183 6.44967 20.7592 6.34244C20.6999 6.23521 20.571 6.18793 20.4565 6.2314C20.2211 6.32093 14.6899 8.45299 14.6899 11.0291C14.6899 12.8049 15.4485 13.743 16.0024 14.4281C16.2197 14.6968 16.4072 14.9288 16.469 15.1269C16.6431 15.6978 16.2308 16.7296 16.0574 17.0791C16.0074 17.1795 16.0319 17.3013 16.1169 17.3746C16.1629 17.4143 16.2202 17.4345 16.2777 17.4345C16.3265 17.4345 16.3756 17.4199 16.4181 17.3904C16.5132 17.3243 18.7423 15.7482 18.3425 13.8494C18.1936 13.1276 17.8389 12.6003 17.526 12.1349C17.0411 11.4139 16.691 10.8931 17.2222 9.93126C17.8446 8.8093 20.6633 6.679 20.6918 6.65767Z" fill="#DB380E"/>
<path d="M6.2941 17.4752C6.1993 17.7591 6.24406 18.0407 6.42342 18.2899C7.02301 19.1223 9.14686 19.5806 12.404 19.5806C12.4042 19.5806 12.4043 19.5806 12.4044 19.5806C12.8457 19.5806 13.3117 19.5719 13.7889 19.5548C18.9964 19.3684 20.9279 17.7461 21.0076 17.6771C21.0945 17.602 21.1177 17.4768 21.0637 17.3756C21.0097 17.2744 20.8932 17.2235 20.782 17.2541C18.9479 17.7549 15.5233 17.9327 13.1479 17.9327C10.4899 17.9327 9.13626 17.7412 8.80485 17.5998C8.97489 17.3663 10.0237 16.9493 11.3234 16.6937C11.4476 16.6693 11.533 16.5546 11.5207 16.4286C11.5084 16.3026 11.4026 16.2065 11.2759 16.2065C10.5141 16.2065 6.69348 16.2677 6.2941 17.4752Z" fill="#73A1FB"/>
<path d="M23.7194 15.8042C22.6453 15.8042 21.6268 16.3426 21.5839 16.3654C21.4846 16.4186 21.4342 16.5325 21.4614 16.6419C21.4888 16.7512 21.5871 16.828 21.6997 16.8281C21.7225 16.8281 23.9909 16.8467 24.1963 18.1427C24.3783 19.2608 22.0501 21.0724 21.1376 21.6762C21.039 21.7414 21.0008 21.8674 21.0465 21.9764C21.0855 22.0691 21.1758 22.1271 21.2732 22.1271C21.2902 22.1271 21.3074 22.1254 21.3245 22.1217C21.5411 22.0754 26.6218 20.9558 26.0846 17.9977C25.7569 16.1848 24.6174 15.8042 23.7194 15.8042Z" fill="#73A1FB"/>
<path d="M20.2352 21.3144C20.2529 21.2197 20.2135 21.1233 20.1346 21.0679L18.9164 20.2146C18.857 20.173 18.7819 20.1599 18.7122 20.1784C18.6995 20.1816 17.4255 20.5166 15.576 20.7219C14.8419 20.8042 14.0197 20.8477 13.1981 20.8477C11.349 20.8477 10.14 20.6305 9.9639 20.4711C9.94058 20.4263 9.94796 20.406 9.95212 20.3947C9.98411 20.3057 10.1556 20.2 10.2661 20.1582C10.3881 20.113 10.4539 19.9805 10.416 19.856C10.3781 19.7314 10.2497 19.6581 10.123 19.6885C8.901 19.9834 8.30346 20.3958 8.34694 20.9142C8.42417 21.8333 10.553 22.305 12.3527 22.4297C12.6115 22.4474 12.8914 22.4564 13.1845 22.4564C13.1846 22.4564 13.1848 22.4564 13.1849 22.4564C16.1776 22.4564 20.0141 21.5174 20.0524 21.5078C20.1461 21.485 20.2175 21.4093 20.2352 21.3144Z" fill="#73A1FB"/>
<path d="M11.0507 23.2867C11.143 23.2267 11.1838 23.1127 11.1511 23.0076C11.1185 22.9025 11.0202 22.8335 10.9098 22.835C10.746 22.8393 9.30732 22.9042 9.2066 23.8202C9.17613 24.094 9.25453 24.3441 9.43974 24.5636C9.95631 25.1758 11.3507 25.5396 13.7019 25.6759C13.9801 25.6926 14.2626 25.701 14.5418 25.701C17.531 25.701 19.5442 24.7651 19.6285 24.7252C19.7102 24.6866 19.7641 24.6062 19.7689 24.516C19.7737 24.4258 19.7287 24.3402 19.6516 24.293L18.112 23.3531C18.0586 23.3206 17.9946 23.3098 17.9337 23.3223C17.924 23.3243 16.9464 23.527 15.4712 23.7273C15.1921 23.7653 14.8425 23.7846 14.4324 23.7846C12.9587 23.7846 11.3196 23.5438 11.0053 23.3861C11.0007 23.3567 11.0065 23.3193 11.0507 23.2867Z" fill="#73A1FB"/>
<path d="M13.1489 28.5268C19.9959 28.521 23.6707 27.3033 24.3786 26.5371C24.6292 26.2661 24.6563 26.0094 24.635 25.8418C24.5824 25.4293 24.2066 25.1767 24.164 25.1493C24.0613 25.0832 23.9233 25.1005 23.8432 25.193C23.7632 25.2854 23.7613 25.4205 23.8416 25.5129C23.8848 25.5685 23.9098 25.6615 23.7835 25.7879C23.5005 26.0522 20.6461 26.8545 15.8935 27.0956C15.2424 27.1294 14.5596 27.1466 13.864 27.1467C9.60872 27.1467 6.49451 26.5638 6.0857 26.2242C6.24326 25.9978 7.34483 25.6361 8.51629 25.4315C8.64831 25.4085 8.73749 25.2841 8.71704 25.1517C8.69659 25.0193 8.57454 24.9282 8.44112 24.9455C8.40807 24.95 8.29592 24.9567 8.16608 24.9646C6.23318 25.0826 3.99952 25.3457 3.88298 26.3416C3.84759 26.645 3.93776 26.9205 4.1511 27.1603C4.67312 27.7468 6.17353 28.5267 13.1487 28.5267C13.1488 28.5268 13.1488 28.5268 13.1489 28.5268Z" fill="#73A1FB"/>
<path d="M25.7236 26.7527C25.6268 26.708 25.5124 26.7306 25.4402 26.8085C25.4302 26.8194 24.4008 27.8958 21.3056 28.5279C20.1206 28.7653 17.8964 28.8857 14.6947 28.8857C11.4869 28.8857 8.4346 28.7595 8.40419 28.7582C8.27669 28.752 8.16764 28.8447 8.1503 28.9702C8.1329 29.0956 8.21376 29.2139 8.33686 29.2432C8.36862 29.2507 11.5674 30.0001 15.9411 30.0001C18.0389 30.0001 20.0802 29.8298 22.0084 29.4935C25.6038 28.8632 25.8555 27.0805 25.8645 27.0049C25.877 26.8992 25.8202 26.7975 25.7236 26.7527Z" fill="#73A1FB"/>
</g>
<defs>
<clipPath id="clip0_28_1867">
<rect width="30" height="30" fill="white"/>
</clipPath>
</defs>
</svg>
