<svg width="8" height="14" viewBox="0 0 8 14" fill="none" xmlns="http://www.w3.org/2000/svg">
<path d="M0.334694 6.18337L6.22085 0.307617C6.31753 0.210144 6.43255 0.132777 6.55928 0.0799801C6.686 0.0271829 6.82193 0 6.95922 0C7.09651 0 7.23243 0.0271829 7.35916 0.0799801C7.48589 0.132777 7.60091 0.210144 7.69759 0.307617C7.89128 0.502466 8 0.766045 8 1.04079C8 1.31553 7.89128 1.57911 7.69759 1.77396L2.5498 6.97374L7.69759 12.1215C7.89128 12.3164 8 12.58 8 12.8547C8 13.1294 7.89128 13.393 7.69759 13.5879C7.60127 13.6861 7.48642 13.7643 7.35967 13.8179C7.23293 13.8714 7.09681 13.8993 6.95922 13.8999C6.82163 13.8993 6.68551 13.8714 6.55877 13.8179C6.43202 13.7643 6.31716 13.6861 6.22085 13.5879L0.334694 7.71211C0.229133 7.61473 0.144888 7.49653 0.0872667 7.36498C0.0296453 7.23343 -0.000102153 7.09136 -0.000102153 6.94774C-0.000102153 6.80412 0.0296453 6.66206 0.0872667 6.5305C0.144888 6.39895 0.229133 6.28076 0.334694 6.18337Z" fill="#D97356"/>
</svg>
