<svg width="147" height="36" viewBox="0 0 147 36" fill="none" xmlns="http://www.w3.org/2000/svg">
<path d="M16.499 7.00458L13.6462 7C10.441 7 8.36976 9.12507 8.36976 12.4142V14.9105H5.50132C5.25345 14.9105 5.05273 15.1114 5.05273 15.3593V18.9761C5.05273 19.224 5.25368 19.4247 5.50132 19.4247H8.36976V28.5512C8.36976 28.7991 8.57048 28.9998 8.81835 28.9998H12.5609C12.8087 28.9998 13.0094 28.7988 13.0094 28.5512V19.4247H16.3633C16.6112 19.4247 16.8119 19.224 16.8119 18.9761L16.8133 15.3593C16.8133 15.2403 16.7659 15.1263 16.6819 15.0421C16.5979 14.9578 16.4835 14.9105 16.3645 14.9105H13.0094V12.7943C13.0094 11.7772 13.2518 11.2609 14.5767 11.2609L16.4986 11.2602C16.7462 11.2602 16.9469 11.0593 16.9469 10.8116V7.45316C16.9469 7.20576 16.7464 7.00504 16.499 7.00458Z" fill="black"/>
<g clip-path="url(#clip0_28_1674)">
<path d="M145.921 26.3732C145.968 26.3736 146.015 26.3645 146.058 26.3463C146.102 26.3281 146.141 26.3013 146.173 26.2674C146.206 26.2336 146.231 26.1935 146.247 26.1496C146.264 26.1058 146.271 26.059 146.268 26.0124C146.268 25.7565 146.112 25.6343 145.792 25.6343H145.275V26.9738H145.47V26.3899H145.709L145.714 26.397L146.085 26.9738H146.293L145.894 26.3768L145.921 26.3732ZM145.696 26.239H145.47V25.7861H145.756C145.904 25.7861 146.072 25.81 146.072 26.0013C146.072 26.2213 145.902 26.239 145.695 26.239" fill="black"/>
<path d="M140.85 24.694H138.094V20.42C138.094 19.4008 138.076 18.0888 136.66 18.0888C135.225 18.0888 135.005 19.1993 135.005 20.3458V24.6937H132.249V15.9046H134.895V17.1058H134.932C135.197 16.6574 135.579 16.2886 136.039 16.0386C136.499 15.7886 137.019 15.6668 137.543 15.686C140.336 15.686 140.851 17.5055 140.851 19.8724L140.85 24.694ZM129.139 14.7032C128.822 14.7033 128.513 14.6105 128.25 14.4365C127.987 14.2625 127.782 14.0152 127.661 13.7258C127.54 13.4364 127.508 13.118 127.57 12.8108C127.631 12.5035 127.784 12.2213 128.007 11.9998C128.231 11.7782 128.516 11.6273 128.826 11.5662C129.136 11.505 129.458 11.5363 129.75 11.6561C130.043 11.776 130.292 11.9789 130.468 12.2393C130.644 12.4997 130.738 12.8059 130.738 13.1192C130.738 13.3272 130.697 13.5331 130.616 13.7253C130.536 13.9174 130.418 14.0921 130.27 14.2392C130.121 14.3862 129.945 14.5029 129.751 14.5826C129.557 14.6622 129.349 14.7032 129.139 14.7032ZM130.517 24.694H127.758V15.9046H130.517V24.694ZM142.224 9.00125H126.373C126.013 8.99723 125.666 9.13481 125.409 9.38376C125.151 9.6327 125.004 9.97264 125 10.3289V26.0896C125.004 26.446 125.151 26.7861 125.409 27.0353C125.666 27.2845 126.013 27.4224 126.373 27.4186H142.224C142.585 27.4231 142.933 27.2856 143.191 27.0364C143.45 26.7872 143.598 26.4467 143.603 26.0896V10.3277C143.597 9.9708 143.449 9.63047 143.191 9.38153C142.933 9.13259 142.585 8.99541 142.224 9.00012" fill="black"/>
<path d="M145.72 25.0371C145.384 25.0403 145.064 25.1749 144.828 25.4113C144.593 25.6478 144.462 25.967 144.463 26.2991C144.465 26.6311 144.599 26.949 144.837 27.1833C145.075 27.4175 145.396 27.549 145.732 27.549C146.067 27.549 146.389 27.4175 146.627 27.1833C146.864 26.949 146.999 26.6311 147 26.2991C147.002 25.967 146.871 25.6478 146.635 25.4113C146.4 25.1749 146.079 25.0403 145.744 25.0371H145.72ZM145.72 27.4052C145.5 27.4088 145.284 27.3478 145.099 27.2298C144.914 27.1118 144.768 26.9422 144.681 26.7424C144.593 26.5426 144.567 26.3215 144.607 26.1072C144.646 25.8929 144.749 25.6949 144.902 25.5384C145.055 25.3818 145.251 25.2736 145.466 25.2276C145.681 25.1816 145.905 25.1997 146.11 25.2797C146.314 25.3597 146.49 25.4979 146.616 25.677C146.741 25.8561 146.81 26.0679 146.813 26.2857C146.813 26.292 146.813 26.2979 146.813 26.3042C146.819 26.5899 146.711 26.8663 146.511 27.0727C146.311 27.2791 146.037 27.3985 145.749 27.4047H145.72" fill="black"/>
</g>
<g clip-path="url(#clip1_28_1674)">
<path d="M94.9464 26.5272C103.194 26.5272 107.704 19.8121 107.704 13.989C107.704 13.7983 107.7 13.6084 107.691 13.4194C108.566 12.7974 109.327 12.0211 109.927 11.1375C109.124 11.4885 108.259 11.7247 107.353 11.8313C108.278 11.2857 108.989 10.4227 109.324 9.3939C108.458 9.89865 107.499 10.2655 106.477 10.4636C105.659 9.60702 104.494 9.07129 103.204 9.07129C100.728 9.07129 98.7204 11.0448 98.7204 13.4774C98.7204 13.8232 98.7598 14.1595 98.8367 14.4822C95.1102 14.2979 91.8059 12.5444 89.5945 9.87802C89.2094 10.5293 88.9874 11.2857 88.9874 12.0929C88.9874 13.6217 89.779 14.9714 90.9826 15.761C90.247 15.7387 89.556 15.5402 88.952 15.2099C88.9514 15.2283 88.9514 15.2464 88.9514 15.2661C88.9514 17.4003 90.4969 19.1821 92.5485 19.5859C92.1717 19.6868 91.7753 19.741 91.3662 19.741C91.0777 19.741 90.7967 19.7131 90.5235 19.6615C91.0943 21.4124 92.7495 22.6866 94.7119 22.7222C93.1774 23.9043 91.2442 24.6084 89.1432 24.6084C88.7818 24.6084 88.4247 24.5882 88.0737 24.5474C90.0581 25.7975 92.4143 26.5269 94.9467 26.5269" fill="black"/>
</g>
<circle cx="55" cy="18" r="18" fill="#FF6652"/>
<path d="M55.0004 11.4546C53.2228 11.4546 52.9997 11.4624 52.3016 11.4941C51.6048 11.526 51.1291 11.6364 50.713 11.7982C50.2825 11.9654 49.9173 12.189 49.5535 12.553C49.1894 12.9168 48.9658 13.282 48.7981 13.7124C48.6358 14.1287 48.5254 14.6045 48.494 15.301C48.4628 15.9992 48.4546 16.2224 48.4546 18C48.4546 19.7777 48.4625 20.0001 48.4941 20.6983C48.5262 21.3951 48.6365 21.8707 48.7982 22.2869C48.9655 22.7174 49.1892 23.0826 49.5531 23.4464C49.9168 23.8105 50.2819 24.0347 50.7122 24.2019C51.1286 24.3637 51.6044 24.474 52.301 24.5059C52.9992 24.5377 53.2221 24.5455 54.9996 24.5455C56.7773 24.5455 56.9997 24.5377 57.6979 24.5059C58.3947 24.474 58.8708 24.3637 59.2873 24.2019C59.7176 24.0347 60.0822 23.8105 60.4459 23.4464C60.81 23.0826 61.0336 22.7174 61.2013 22.287C61.3622 21.8707 61.4727 21.3949 61.5054 20.6984C61.5368 20.0002 61.545 19.7777 61.545 18C61.545 16.2224 61.5368 15.9993 61.5054 15.3011C61.4727 14.6043 61.3622 14.1287 61.2013 13.7125C61.0336 13.282 60.81 12.9168 60.4459 12.553C60.0818 12.1889 59.7177 11.9653 59.2869 11.7982C58.8696 11.6364 58.3937 11.526 57.6969 11.4941C56.9987 11.4624 56.7765 11.4546 54.9983 11.4546H55.0004ZM54.4132 12.6341C54.5875 12.6339 54.7819 12.6341 55.0004 12.6341C56.748 12.6341 56.9551 12.6404 57.6452 12.6718C58.2834 12.701 58.6297 12.8076 58.8605 12.8972C59.1659 13.0158 59.3837 13.1576 59.6126 13.3867C59.8417 13.6158 59.9835 13.834 60.1024 14.1395C60.192 14.3699 60.2988 14.7163 60.3278 15.3545C60.3592 16.0445 60.366 16.2517 60.366 17.9985C60.366 19.7454 60.3592 19.9526 60.3278 20.6426C60.2986 21.2808 60.192 21.6272 60.1024 21.8576C59.9838 22.1631 59.8417 22.3806 59.6126 22.6095C59.3835 22.8386 59.166 22.9804 58.8605 23.0991C58.63 23.1891 58.2834 23.2954 57.6452 23.3246C56.9552 23.356 56.748 23.3628 55.0004 23.3628C53.2527 23.3628 53.0455 23.356 52.3556 23.3246C51.7174 23.2952 51.371 23.1885 51.1402 23.0989C50.8347 22.9803 50.6166 22.8385 50.3875 22.6094C50.1584 22.3803 50.0166 22.1627 49.8977 21.8571C49.8081 21.6266 49.7013 21.2803 49.6723 20.6421C49.6409 19.9521 49.6346 19.7448 49.6346 17.9969C49.6346 16.249 49.6409 16.0428 49.6723 15.3528C49.7015 14.7146 49.8081 14.3683 49.8977 14.1375C50.0163 13.8321 50.1584 13.6139 50.3875 13.3848C50.6166 13.1557 50.8347 13.0139 51.1402 12.895C51.3709 12.805 51.7174 12.6986 52.3556 12.6693C52.9594 12.642 53.1934 12.6339 54.4132 12.6325V12.6341ZM58.4942 13.721C58.0606 13.721 57.7088 14.0724 57.7088 14.5061C57.7088 14.9398 58.0606 15.2916 58.4942 15.2916C58.9278 15.2916 59.2796 14.9398 59.2796 14.5061C59.2796 14.0725 58.9278 13.7207 58.4942 13.7207V13.721ZM55.0004 14.6387C53.1441 14.6387 51.6391 16.1437 51.6391 18C51.6391 19.8564 53.1441 21.3607 55.0004 21.3607C56.8567 21.3607 58.3611 19.8564 58.3611 18C58.3611 16.1437 56.8565 14.6387 55.0003 14.6387H55.0004ZM55.0004 15.8182C56.2053 15.8182 57.1821 16.795 57.1821 18C57.1821 19.2049 56.2053 20.1819 55.0004 20.1819C53.7954 20.1819 52.8186 19.2049 52.8186 18C52.8186 16.795 53.7954 15.8182 55.0004 15.8182Z" fill="white"/>
<defs>
<clipPath id="clip0_28_1674">
<rect width="22" height="18.5714" fill="white" transform="translate(125 9)"/>
</clipPath>
<clipPath id="clip1_28_1674">
<rect width="22" height="17.6" fill="white" transform="translate(88 9)"/>
</clipPath>
</defs>
</svg>
