<svg width="30" height="24" viewBox="0 0 30 24" fill="none" xmlns="http://www.w3.org/2000/svg">
<path d="M15 12L3.81 7.53L4.5 24H1.5L2.22 6.885L0 6L15 0L30 6L15 12ZM15 4.5C14.175 4.5 13.5 4.83 13.5 5.25C13.5 5.67 14.175 6 15 6C15.825 6 16.5 5.67 16.5 5.25C16.5 4.83 15.825 4.5 15 4.5ZM15 13.5L23.355 10.155C24.42 11.565 25.155 13.26 25.395 15.105C24.945 15.045 24.48 15 24 15C20.175 15 16.83 17.055 15 20.115C14.0711 18.5561 12.7534 17.2652 11.1757 16.3686C9.59807 15.4719 7.81463 15.0004 6 15C5.52 15 5.055 15.045 4.605 15.105C4.845 13.26 5.58 11.565 6.645 10.155L15 13.5Z" fill="black"/>
</svg>
