<svg width="11" height="7" viewBox="0 0 11 7" fill="none" xmlns="http://www.w3.org/2000/svg">
<path d="M10.6914 0.30344C10.4959 0.109088 10.2314 0 9.95577 0C9.68009 0 9.41562 0.109088 9.22011 0.30344L5.47396 3.99741L1.77999 0.30344C1.58448 0.109088 1.32 0 1.04433 0C0.768651 0 0.504176 0.109088 0.308664 0.30344C0.210859 0.400447 0.133229 0.515858 0.0802517 0.643018C0.0272749 0.770177 0 0.906568 0 1.04432C0 1.18208 0.0272749 1.31847 0.0802517 1.44563C0.133229 1.57278 0.210859 1.6882 0.308664 1.7852L4.73308 6.20962C4.83009 6.30742 4.9455 6.38505 5.07266 6.43803C5.19982 6.49101 5.33621 6.51828 5.47396 6.51828C5.61171 6.51828 5.74811 6.49101 5.87526 6.43803C6.00242 6.38505 6.11784 6.30742 6.21484 6.20962L10.6914 1.7852C10.7892 1.6882 10.8669 1.57278 10.9198 1.44563C10.9728 1.31847 11.0001 1.18208 11.0001 1.04432C11.0001 0.906568 10.9728 0.770177 10.9198 0.643018C10.8669 0.515858 10.7892 0.400447 10.6914 0.30344Z" fill="#0A033C"/>
</svg>
