<svg width="21" height="20" viewBox="0 0 21 20" fill="none" xmlns="http://www.w3.org/2000/svg">
<path d="M19.7338 18.3136L16.0232 14.633C17.4636 12.8372 18.1611 10.5577 17.9723 8.26341C17.7836 5.96908 16.723 3.83424 15.0086 2.29788C13.2942 0.761518 11.0563 -0.0595982 8.75511 0.00337146C6.45388 0.0663411 4.26425 1.00861 2.63643 2.63643C1.00861 4.26425 0.0663411 6.45388 0.00337146 8.75511C-0.0595982 11.0563 0.761518 13.2942 2.29788 15.0086C3.83424 16.723 5.96908 17.7836 8.26341 17.9723C10.5577 18.1611 12.8372 17.4636 14.633 16.0232L18.3136 19.7038C18.4066 19.7975 18.5172 19.8719 18.6391 19.9227C18.7609 19.9735 18.8917 19.9996 19.0237 19.9996C19.1557 19.9996 19.2864 19.9735 19.4083 19.9227C19.5302 19.8719 19.6408 19.7975 19.7338 19.7038C19.9141 19.5173 20.0148 19.2681 20.0148 19.0087C20.0148 18.7493 19.9141 18.5001 19.7338 18.3136ZM9.02222 16.0232C7.63755 16.0232 6.28397 15.6126 5.13266 14.8434C3.98135 14.0741 3.08401 12.9807 2.55412 11.7014C2.02423 10.4221 1.88558 9.01446 2.15572 7.65639C2.42586 6.29832 3.09264 5.05086 4.07175 4.07175C5.05086 3.09264 6.29832 2.42586 7.65639 2.15572C9.01446 1.88558 10.4221 2.02423 11.7014 2.55412C12.9807 3.08401 14.0741 3.98135 14.8434 5.13266C15.6126 6.28397 16.0232 7.63755 16.0232 9.02222C16.0232 10.879 15.2856 12.6597 13.9727 13.9727C12.6597 15.2856 10.879 16.0232 9.02222 16.0232Z" fill="white"/>
</svg>
