<svg width="220" height="220" viewBox="0 0 220 220" fill="none" xmlns="http://www.w3.org/2000/svg">
<g filter="url(#filter0_d_28_2191)">
<rect x="70" y="45" width="80" height="80" rx="10" fill="white"/>
</g>
<path d="M111.569 106.849C110.5 106.849 109.862 105.79 110.192 104.883L116.468 87.6239C116.745 86.8636 117.585 86.4714 118.346 86.7476C119.106 87.0242 119.498 87.865 119.221 88.6252L112.946 105.884C112.729 106.479 112.167 106.849 111.569 106.849Z" fill="#3AB4FB"/>
<path d="M127.259 106.849C126.663 106.849 126.102 106.481 125.884 105.889L119.545 88.6294C119.266 87.8699 119.656 87.0284 120.415 86.7495C121.174 86.4703 122.016 86.8601 122.295 87.6193L128.634 104.878C128.991 105.85 128.259 106.849 127.259 106.849Z" fill="#1D9CFD"/>
<path d="M130.397 63.125H108.431C105.889 63.125 103.828 65.1857 103.828 67.7274V84.9874C103.828 87.5291 105.889 89.5898 108.431 89.5898H130.397C132.939 89.5898 135 87.5291 135 84.9874V67.7274C135 65.1857 132.939 63.125 130.397 63.125Z" fill="#EFF6FE"/>
<path d="M130.398 63.125H119.222V89.5898H130.398C132.939 89.5898 135 87.5291 135 84.9874V67.7274C135 65.1857 132.939 63.125 130.398 63.125Z" fill="#D9E4EF"/>
<path d="M100.69 72.4352C100.69 75.9588 97.8334 78.8152 94.3098 78.8152C90.7861 78.8152 87.9297 75.9588 87.9297 72.4352C87.9297 68.9111 90.7861 66.0547 94.3098 66.0547C97.8334 66.0547 100.69 68.9111 100.69 72.4352Z" fill="#FFCFBE"/>
<path d="M108.56 87.8667C107.837 87.5046 107.544 86.625 107.905 85.9013L111.828 78.056C112.19 77.3324 113.07 77.0394 113.793 77.401C114.517 77.763 114.81 78.6427 114.448 79.3664L110.526 87.2113C110.163 87.9361 109.283 88.2279 108.56 87.8667Z" fill="#FFB826"/>
<path d="M100.691 72.4355C100.691 75.9592 97.8344 78.8156 94.3096 78.8156V66.0547C97.8344 66.0547 100.691 68.9111 100.691 72.4355Z" fill="#F9BCAA"/>
<path d="M127.259 71.5469H111.569C110.76 71.5469 110.104 70.8907 110.104 70.082C110.104 69.2729 110.76 68.6172 111.569 68.6172H127.259C128.068 68.6172 128.724 69.2729 128.724 70.082C128.724 70.8907 128.068 71.5469 127.259 71.5469Z" fill="#3AB4FB"/>
<path d="M127.259 77.8223H120.687C119.877 77.8223 119.222 77.1665 119.222 76.3574C119.222 75.5483 119.877 74.8926 120.687 74.8926H127.259C128.068 74.8926 128.724 75.5483 128.724 76.3574C128.724 77.1665 128.068 77.8223 127.259 77.8223Z" fill="#1D9CFD"/>
<path d="M127.259 84.0986H120.687C119.877 84.0986 119.222 83.4425 119.222 82.6338C119.222 81.8247 119.877 81.1689 120.687 81.1689H127.259C128.068 81.1689 128.724 81.8247 128.724 82.6338C128.724 83.4425 128.068 84.0986 127.259 84.0986Z" fill="#1D9CFD"/>
<path d="M127.259 68.6172H119.222V71.5469H127.259C128.068 71.5469 128.724 70.8907 128.724 70.082C128.724 69.2729 128.068 68.6172 127.259 68.6172Z" fill="#1D9CFD"/>
<path d="M99.0167 106.849H89.6028C88.7937 106.849 88.138 106.194 88.138 105.384V97.1962C86.3157 96.5831 85 94.8585 85 92.8322V88.1252C85 85.6346 85.9693 83.2962 87.729 81.541C89.4556 79.8099 91.855 78.8154 94.3102 78.8154H95.6045C98.1741 78.8154 99.6801 79.7565 101.791 80.8059C104.115 81.9618 107.015 83.4037 108.864 84.325C110.571 85.173 111.388 87.1616 110.774 88.9618C110.772 88.9675 110.77 88.9732 110.768 88.9789C110.398 90.0722 109.57 90.953 108.494 91.3955C107.416 91.8346 106.207 91.7881 105.171 91.2704C103.695 90.5319 101.87 89.6198 100.482 88.9259V105.384C100.482 106.194 99.8258 106.849 99.0167 106.849Z" fill="#FF7579"/>
<path d="M108.865 84.325C107.015 83.4037 104.115 81.9618 101.791 80.8059C99.6803 79.7565 98.1742 78.8154 95.6047 78.8154H94.31C94.31 78.8154 94.31 78.8154 94.3096 78.8154V106.849H99.0169C99.826 106.849 100.482 106.194 100.482 105.384V88.9259C101.871 89.6198 103.695 90.5319 105.172 91.2704C106.206 91.7881 107.416 91.8342 108.494 91.3955C109.57 90.953 110.398 90.0722 110.768 88.9785C110.77 88.9728 110.772 88.9671 110.774 88.9614C111.388 87.1616 110.571 85.173 108.865 84.325Z" fill="#FE4A60"/>
<defs>
<filter id="filter0_d_28_2191" x="0" y="0" width="220" height="220" filterUnits="userSpaceOnUse" color-interpolation-filters="sRGB">
<feFlood flood-opacity="0" result="BackgroundImageFix"/>
<feColorMatrix in="SourceAlpha" type="matrix" values="0 0 0 0 0 0 0 0 0 0 0 0 0 0 0 0 0 0 127 0" result="hardAlpha"/>
<feOffset dy="25"/>
<feGaussianBlur stdDeviation="35"/>
<feColorMatrix type="matrix" values="0 0 0 0 0.0392157 0 0 0 0 0.0117647 0 0 0 0 0.235294 0 0 0 0.15 0"/>
<feBlend mode="normal" in2="BackgroundImageFix" result="effect1_dropShadow_28_2191"/>
<feBlend mode="normal" in="SourceGraphic" in2="effect1_dropShadow_28_2191" result="shape"/>
</filter>
</defs>
</svg>
