<svg width="11" height="7" viewBox="0 0 11 7" fill="none" xmlns="http://www.w3.org/2000/svg">
<path d="M10.7158 4.74385L6.22898 0.309366C6.13175 0.211338 6.01608 0.133532 5.88863 0.0804347C5.76118 0.0273374 5.62448 0 5.48641 0C5.34835 0 5.21165 0.0273374 5.0842 0.0804347C4.95675 0.133532 4.84107 0.211338 4.74385 0.309366L0.309366 4.74385C0.211338 4.84107 0.133532 4.95675 0.0804342 5.0842C0.0273369 5.21165 0 5.34835 0 5.48641C0 5.62448 0.0273369 5.76118 0.0804342 5.88863C0.133532 6.01608 0.211338 6.13175 0.309366 6.22898C0.505322 6.42377 0.7704 6.53311 1.0467 6.53311C1.32301 6.53311 1.58808 6.42377 1.78404 6.22898L5.48641 2.52661L9.18879 6.22898C9.38359 6.4222 9.64652 6.53113 9.92089 6.53228C10.0585 6.53308 10.195 6.5067 10.3224 6.45465C10.4498 6.4026 10.5657 6.32591 10.6635 6.22898C10.765 6.13525 10.8469 6.02233 10.9046 5.89675C10.9622 5.77117 10.9944 5.63541 10.9992 5.49732C11.0041 5.35922 10.9816 5.22154 10.9329 5.09221C10.8842 4.96289 10.8104 4.84448 10.7158 4.74385Z" fill="white"/>
</svg>
